<svg width="97" height="97" xmlns="http://www.w3.org/2000/svg" xmlns:xlink="http://www.w3.org/1999/xlink" xml:space="preserve" overflow="hidden"><g transform="translate(-312 -389)"><g><g><g><g><path d="M393.4 460.4C389.7 452.2 380.6 449.3 380 425L380 425.1C379.7 418.1 375.6 412.2 369.8 409.2 370 408.5 370.1 407.8 370.1 407.1 370.1 402.1 366.1 398.1 361.1 398.1 356.1 398.1 352.1 402.1 352.1 407.1 352.1 407.8 352.2 408.6 352.4 409.2 346.6 412.2 342.5 418.2 342.2 425.1L342.2 425C341.6 449.3 332.5 452.2 328.8 460.4 327.8 461.7 327.2 463 327.2 464.5 327 472 342.2 478 361 478 379.8 478 395 472 395 464.5 395 463.1 394.5 461.7 393.4 460.4ZM361 402C363.8 402 366 404.2 366 407 366 407.2 366 407.4 365.9 407.7 364.4 407.2 362.7 407 361 407 359.3 407 357.6 407.2 356.1 407.7 356.1 407.5 356 407.3 356 407 356 404.2 358.2 402 361 402ZM361 472C343.5 472 334 466.7 333 464.5 333.8 462.6 341.5 458.1 355.6 457.2 355.2 458 354.9 459 354.9 460 354.9 463.3 357.6 466 361 466 364.4 466 367.1 463.3 367.1 460 367.1 459 366.8 458 366.4 457.2 380.5 458.1 388.2 462.6 389 464.5 388 466.7 378.5 472 361 472Z" fill="#000000" fill-rule="nonzero" fill-opacity="1"/></g></g></g></g></g></svg>