<svg width="97" height="96" xmlns="http://www.w3.org/2000/svg" xmlns:xlink="http://www.w3.org/1999/xlink" xml:space="preserve" overflow="hidden"><g transform="translate(-220 -232)"><g><g><g><g><path d="M282 262 233 262 233 312 305 312 305 274 282 274ZM280 274 258 274 258 264 280 264ZM268 276 268 286 246 286 246 276ZM258 298 258 288 280 288 280 298ZM256 288 256 298 235 298 235 288ZM268 300 268 310 246 310 246 300ZM270 300 292 300 292 310 270 310ZM282 298 282 288 303 288 303 298ZM270 286 270 276 292 276 292 286ZM235 264 256 264 256 274 235 274ZM244 276 244 286 235 286 235 276ZM235 300 244 300 244 310 235 310ZM294 310 294 300 303 300 303 310ZM303 286 294 286 294 276 303 276Z" fill="#000000" fill-rule="nonzero" fill-opacity="1"/><path d="M306.467 250.747 301.805 239.69 279.69 249.014 284.352 260.071ZM300.738 242.31 303.848 249.682 285.418 257.451 282.31 250.08Z" fill="#000000" fill-rule="nonzero" fill-opacity="1"/></g></g></g></g></g></svg>