<svg width="97" height="98" xmlns="http://www.w3.org/2000/svg" xmlns:xlink="http://www.w3.org/1999/xlink" xml:space="preserve" overflow="hidden"><g transform="translate(-237 -610)"><g><g><g><g><path d="M276 639.998 296 639.998 296 649.998 276 649.998Z" fill="#000000" fill-rule="nonzero" fill-opacity="1"/><path d="M252 639.998 272 639.998 272 649.998 252 649.998Z" fill="#000000" fill-rule="nonzero" fill-opacity="1"/><path d="M252 653.998 260 653.998 260 663.998 252 663.998Z" fill="#000000" fill-rule="nonzero" fill-opacity="1"/><path d="M312 654 320 654 320 664 312 664Z" fill="#000000" fill-rule="nonzero" fill-opacity="1"/><path d="M264 654 284 654 284 664 264 664Z" fill="#000000" fill-rule="nonzero" fill-opacity="1"/><path d="M288 654 308 654 308 664 288 664Z" fill="#000000" fill-rule="nonzero" fill-opacity="1"/><path d="M276 668 296 668 296 678 276 678Z" fill="#000000" fill-rule="nonzero" fill-opacity="1"/><path d="M252 668 272 668 272 678 252 678Z" fill="#000000" fill-rule="nonzero" fill-opacity="1"/><path d="M252 682 260 682 260 692 252 692Z" fill="#000000" fill-rule="nonzero" fill-opacity="1"/><path d="M312 682 320 682 320 692 312 692Z" fill="#000000" fill-rule="nonzero" fill-opacity="1"/><path d="M300 668 320 668 320 678 300 678Z" fill="#000000" fill-rule="nonzero" fill-opacity="1"/><path d="M264 682 284 682 284 692 264 692Z" fill="#000000" fill-rule="nonzero" fill-opacity="1"/><path d="M288 682 308 682 308 692 288 692Z" fill="#000000" fill-rule="nonzero" fill-opacity="1"/><path d="M298 628.875 316.384 620.997 320.294 630.123 301.911 638Z" fill="#000000" fill-rule="nonzero" fill-opacity="1"/></g></g></g></g></g></svg>