<svg width="97" height="98" xmlns="http://www.w3.org/2000/svg" xmlns:xlink="http://www.w3.org/1999/xlink" xml:space="preserve" overflow="hidden"><g transform="translate(-129 -278)"><g><g><g><g><path d="M179 344C179 345.105 178.105 346 177 346 175.895 346 175 345.105 175 344 175 342.895 175.895 342 177 342 178.105 342 179 342.895 179 344Z" fill="#000000" fill-rule="nonzero" fill-opacity="1"/><path d="M187 344C187 345.105 186.105 346 185 346 183.895 346 183 345.105 183 344 183 342.895 183.895 342 185 342 186.105 342 187 342.895 187 344Z" fill="#000000" fill-rule="nonzero" fill-opacity="1"/><path d="M179 352C179 353.105 178.105 354 177 354 175.895 354 175 353.105 175 352 175 350.895 175.895 350 177 350 178.105 350 179 350.895 179 352Z" fill="#000000" fill-rule="nonzero" fill-opacity="1"/><path d="M187 352C187 353.105 186.105 354 185 354 183.895 354 183 353.105 183 352 183 350.895 183.895 350 185 350 186.105 350 187 350.895 187 352Z" fill="#000000" fill-rule="nonzero" fill-opacity="1"/><path d="M206.3 336.5C202.6 333.4 198.2 331.6 193.6 329.9L188.7 327.9C188.3 327.7 188.1 327.4 188.1 327L188.1 324.6C191.9 321.6 194.1 317 194.1 312.1L194.1 306.1 194.1 303.1C198.5 299.8 199.4 293.5 196.1 289.1 193.8 286 190 284.6 186.2 285.3 183 280.8 176.8 279.8 172.3 283 171.4 283.6 170.6 284.4 170 285.3 164.6 284.3 159.3 287.8 158.3 293.2 157.5 296.9 159 300.7 162 303L162 309 162 312C162 316.8 164.2 321.4 168 324.5L168 327C168 327.4 167.8 327.8 167.4 327.9L162.5 329.9C157.9 331.5 153.5 333.4 149.8 336.5 147.4 338.3 146.1 341 146 344L146 361.6 146.9 362.2C151.8 365.5 165.1 367.1 178.3 367.1 191.6 367.1 204.8 365.4 209.2 362.1L210 361.5 210 344C209.9 341 208.6 338.3 206.3 336.5ZM168 289C169.5 289 170.9 289.6 172 290.6 172.2 287.3 175.1 284.8 178.4 285.1 181.4 285.3 183.7 287.7 183.9 290.6 186.4 288.4 190.1 288.6 192.4 291 194.6 293.5 194.4 297.2 192 299.5 191.4 300 190.7 300.4 190 300.7L190 305 166 305 166 300.7C162.9 299.6 161.3 296.2 162.4 293 163.2 290.6 165.5 289 168 289ZM166 312 166 309 190 309 190 312C190 318.6 184.6 324 178 324 171.4 324 166 318.6 166 312ZM178 328C180.1 328 182.1 327.6 184 326.8L184 326.9C184 328.4 184.7 329.9 185.9 330.9 183.4 331.7 180.7 332 178 332 175.3 332 172.6 331.6 170 330.9 171.2 330 171.9 328.5 171.9 326.9L171.9 326.8C173.9 327.6 175.9 328 178 328ZM150 344C150 342.2 150.9 340.6 152.3 339.5 155.6 336.8 159.6 335.1 163.8 333.6L163.9 333.5C164.4 333.3 164.8 333.2 165.3 333 165.5 333.1 165.8 333.3 166 333.4L166 362.4C159.1 361.8 153.1 360.8 150 359.2L150 344ZM206 359.4C200.5 362.4 184 363.5 170 362.8L170 335C172.6 335.7 175.3 336 178 336 183.1 336 187.7 334.9 190.7 333.1 191.2 333.3 191.6 333.4 192.1 333.6L192.3 333.7C196.5 335.2 200.5 336.9 203.8 339.6 205.2 340.7 206 342.3 206 344L206 359.4Z" fill="#000000" fill-rule="nonzero" fill-opacity="1"/></g></g></g></g></g></svg>