<svg width="98" height="96" xmlns="http://www.w3.org/2000/svg" xmlns:xlink="http://www.w3.org/1999/xlink" xml:space="preserve" overflow="hidden"><g transform="translate(-1082 -68)"><g><g><g><g><path d="M1175.25 117 1164.73 117C1164.48 117.002 1164.23 117.057 1164.01 117.162L1164.01 107 1150.01 107 1150.01 99 1135 99 1135 107 1121 107 1121 115 1107 115 1107 123 1102 123 1102 104 1102.98 104C1103.6 104 1104.15 103.627 1104.38 103.057L1107.18 96.057C1107.49 95.2878 1107.11 94.4149 1106.34 94.1072 1106.17 94.0367 1105.98 94.0003 1105.79 94L1094 94 1094 87C1094 86.4477 1093.55 86 1093 86 1092.45 86 1092 86.4477 1092 87L1092 94 1089.5 94C1088.67 94 1088 94.6716 1088 95.5L1088 102.5C1088 103.328 1088.67 104 1089.5 104L1091 104 1091 123 1086.76 123C1085.79 123 1085.01 123.782 1085.01 124.748 1085.01 124.972 1085.05 125.193 1085.13 125.4L1091.73 141.9C1092 142.564 1092.64 143 1093.36 143L1152.75 143C1153.21 143 1153.66 142.816 1153.98 142.487L1176.48 119.987C1177.17 119.303 1177.17 118.195 1176.48 117.512 1176.16 117.185 1175.71 117.001 1175.25 117ZM1162.01 119 1158.52 122.488C1158.19 122.816 1157.74 123.001 1157.28 123L1150.01 123 1150.01 117 1162.01 117ZM1148.01 109 1148.01 115 1137.01 115 1137.01 109ZM1148.01 117 1148.01 123 1137.01 123 1137.01 117ZM1135.01 123 1123.01 123 1123.01 117 1135.01 117ZM1162.01 115 1150.01 115 1150.01 109 1162.01 109ZM1137 101 1148 101 1148 107 1137 107ZM1135 115 1123 115 1123 109 1135 109ZM1109 117 1121 117 1121 123 1109 123ZM1090 102 1090 96 1105.04 96C1105.04 96.0001 1105.04 96.0046 1105.04 96.0102 1105.04 96.0115 1105.04 96.0128 1105.04 96.014L1102.65 102 1090 102ZM1093 104 1100 104 1100 123 1093 123ZM1152.64 141 1093.53 141 1087.13 125.014C1087.13 125.009 1087.13 125.003 1087.14 125.001 1087.14 125 1087.14 125 1087.14 125L1157.28 125C1158.27 125 1159.23 124.604 1159.93 123.9L1164.83 119 1174.62 119C1174.63 119 1174.63 119.005 1174.63 119.01 1174.63 119.013 1174.63 119.015 1174.63 119.017Z" fill="#000000" fill-rule="nonzero" fill-opacity="1"/></g></g></g></g></g></svg>