<svg width="98" height="96" xmlns="http://www.w3.org/2000/svg" xmlns:xlink="http://www.w3.org/1999/xlink" xml:space="preserve" overflow="hidden"><g transform="translate(-378 -72)"><g><g><g><g><path d="M403.999 118 415.999 118 415.999 124 403.999 124Z" fill="#000000" fill-rule="nonzero" fill-opacity="1"/><path d="M417.999 118 429.999 118 429.999 124 417.999 124Z" fill="#000000" fill-rule="nonzero" fill-opacity="1"/><path d="M431.999 118 443.999 118 443.999 124 431.999 124Z" fill="#000000" fill-rule="nonzero" fill-opacity="1"/><path d="M417.999 110 429.999 110 429.999 116 417.999 116Z" fill="#000000" fill-rule="nonzero" fill-opacity="1"/><path d="M431.999 110 443.999 110 443.999 116 431.999 116Z" fill="#000000" fill-rule="nonzero" fill-opacity="1"/><path d="M431.999 102 443.999 102 443.999 108 431.999 108Z" fill="#000000" fill-rule="nonzero" fill-opacity="1"/><path d="M445.999 110 457.999 110 457.999 116 445.999 116Z" fill="#000000" fill-rule="nonzero" fill-opacity="1"/><path d="M385.5 108 387 108 387 124 398 124 398 108 398.984 108C399.598 108 400.149 107.627 400.377 107.057L403.177 100.057C403.485 99.2878 403.11 98.4149 402.341 98.1073 402.164 98.0362 401.974 97.9998 401.783 98L390.5 98 390.5 91C390.5 90.1716 389.828 89.5 389 89.5 388.172 89.5 387.5 90.1716 387.5 91L387.5 98 385.5 98C384.672 98 384 98.6716 384 99.5L384 106.5C384 107.328 384.672 108 385.5 108Z" fill="#000000" fill-rule="nonzero" fill-opacity="1"/><path d="M457.999 118.762 457.999 118 445.999 118 445.999 124 452.756 124 457.999 118.762Z" fill="#000000" fill-rule="nonzero" fill-opacity="1"/><path d="M471.243 121 460.723 121C460.259 121 459.814 121.184 459.486 121.513L454.511 126.487C454.183 126.816 453.738 127 453.274 127L382.752 127C381.785 127 381.002 127.783 381.002 128.75 381.002 128.973 381.044 129.193 381.127 129.4L387.727 145.9C387.993 146.564 388.636 147 389.352 147L448.742 147C449.206 147 449.651 146.816 449.979 146.487L472.479 123.987C473.162 123.303 473.162 122.195 472.478 121.512 472.15 121.185 471.706 121.001 471.243 121Z" fill="#000000" fill-rule="nonzero" fill-opacity="1"/></g></g></g></g></g></svg>