<svg width="97" height="97" xmlns="http://www.w3.org/2000/svg" xmlns:xlink="http://www.w3.org/1999/xlink" xml:space="preserve" overflow="hidden"><g transform="translate(-296 -133)"><g><g><g><g><path d="M374 213 374 153C374 147.154 359.059 144 345 144 330.941 144 316 147.154 316 153L316 213C316 218.846 330.941 222 345 222 359.059 222 374 218.846 374 213ZM345 146C360.453 146 372 149.7 372 153 372 156.3 360.453 160 345 160 329.547 160 318 156.3 318 153 318 149.7 329.547 146 345 146ZM318 156.46C322.529 160.08 334.033 162 345 162 355.967 162 367.471 160.08 372 156.46L372 173C372 176.3 360.453 180 345 180 329.547 180 318 176.3 318 173ZM318 176.46C322.529 180.08 334.033 182 345 182 355.967 182 367.471 180.08 372 176.46L372 193C372 196.3 360.453 200 345 200 329.547 200 318 196.3 318 193ZM318 213 318 196.46C322.529 200.08 334.033 202 345 202 355.967 202 367.471 200.08 372 196.46L372 213C372 216.3 360.453 220 345 220 329.547 220 318 216.3 318 213Z" fill="#000000" fill-rule="nonzero" fill-opacity="1"/><path d="M367 170C367 171.105 366.105 172 365 172 363.895 172 363 171.105 363 170 363 168.895 363.895 168 365 168 366.105 168 367 168.895 367 170Z" fill="#000000" fill-rule="nonzero" fill-opacity="1"/><path d="M367 190C367 191.105 366.105 192 365 192 363.895 192 363 191.105 363 190 363 188.895 363.895 188 365 188 366.105 188 367 188.895 367 190Z" fill="#000000" fill-rule="nonzero" fill-opacity="1"/><path d="M367 210C367 211.105 366.105 212 365 212 363.895 212 363 211.105 363 210 363 208.895 363.895 208 365 208 366.105 208 367 208.895 367 210Z" fill="#000000" fill-rule="nonzero" fill-opacity="1"/></g></g></g></g></g></svg>