<svg width="97" height="97" xmlns="http://www.w3.org/2000/svg" xmlns:xlink="http://www.w3.org/1999/xlink" xml:space="preserve" overflow="hidden"><g transform="translate(-192 -136)"><g><g><g><g><path d="M269 155C269 159.418 256.464 163 241 163 225.536 163 213 159.418 213 155 213 150.582 225.536 147 241 147 256.464 147 269 150.582 269 155Z" fill="#000000" fill-rule="nonzero" fill-opacity="1"/><path d="M261 175C259.8 175 259 174.2 259 173 259 171.8 259.8 171 261 171 262.2 171 263 171.8 263 173 263 174.2 262.2 175 261 175ZM241 167C225.6 167 213 163.4 213 159L213 175C213 179.4 225.6 183 241 183 256.4 183 269 179.4 269 175L269 159C269 163.4 256.4 167 241 167Z" fill="#000000" fill-rule="nonzero" fill-opacity="1"/><path d="M261 195C259.8 195 259 194.2 259 193 259 191.8 259.8 191 261 191 262.2 191 263 191.8 263 193 263 194.2 262.2 195 261 195ZM241 187C225.6 187 213 183.4 213 179L213 195C213 199.4 225.6 203 241 203 256.4 203 269 199.4 269 195L269 179C269 183.4 256.4 187 241 187Z" fill="#000000" fill-rule="nonzero" fill-opacity="1"/><path d="M261 215C259.8 215 259 214.2 259 213 259 211.8 259.8 211 261 211 262.2 211 263 211.8 263 213 263 214.2 262.2 215 261 215ZM241 207C225.6 207 213 203.4 213 199L213 215C213 219.4 225.6 223 241 223 256.4 223 269 219.4 269 215L269 199C269 203.4 256.4 207 241 207Z" fill="#000000" fill-rule="nonzero" fill-opacity="1"/></g></g></g></g></g></svg>