<svg width="97" height="96" xmlns="http://www.w3.org/2000/svg" xmlns:xlink="http://www.w3.org/1999/xlink" xml:space="preserve" overflow="hidden"><g transform="translate(-172 -532)"><g><g><g><g><path d="M187 597 191 597 191 601 187 601 187 597ZM187 589 191 589 191 593 187 593 187 589ZM187 581 191 581 191 585 187 585 187 581ZM195 597 199 597 199 601 195 601 195 597ZM195 589 199 589 199 593 195 593 195 589ZM195 581 199 581 199 585 195 585 195 581ZM181 611 191 611 191 605 195 605 195 611 205 611 205 575 181 575 181 611Z" fill="#000000" fill-rule="nonzero" fill-opacity="1"/><path d="M215 597 219 597 219 601 215 601 215 597ZM215 589 219 589 219 593 215 593 215 589ZM223 597 227 597 227 601 223 601 223 597ZM223 589 227 589 227 593 223 593 223 589ZM209 611 219 611 219 605 223 605 223 611 233 611 233 583 209 583 209 611Z" fill="#000000" fill-rule="nonzero" fill-opacity="1"/><path d="M255 562 251 562 251 558 255 558 255 562ZM255 569 251 569 251 565 255 565 255 569ZM255 577 251 577 251 573 255 573 255 577ZM255 585 251 585 251 581 255 581 255 585ZM255 593 251 593 251 589 255 589 255 593ZM255 601 251 601 251 597 255 597 255 601ZM247 562 243 562 243 558 247 558 247 562ZM247 569 243 569 243 565 247 565 247 569ZM247 577 243 577 243 573 247 573 247 577ZM247 585 243 585 243 581 247 581 247 585ZM247 593 243 593 243 589 247 589 247 593ZM247 601 243 601 243 597 247 597 247 601ZM237 551 237 611 247 611 247 605 251 605 251 611 261 611 261 554 237 551Z" fill="#000000" fill-rule="nonzero" fill-opacity="1"/><path d="M209 563 213 563 213 567 209 567 209 563ZM209 555 213 555 213 559 209 559 209 555ZM205 559 201 559 201 555 205 555 205 559ZM205 567 201 567 201 563 205 563 205 567ZM209 579 219 579 219 549 195 549 195 571 209 571 209 579Z" fill="#000000" fill-rule="nonzero" fill-opacity="1"/></g></g></g></g></g></svg>