<svg width="98" height="96" xmlns="http://www.w3.org/2000/svg" xmlns:xlink="http://www.w3.org/1999/xlink" xml:space="preserve" overflow="hidden"><g transform="translate(-558 -316)"><g><g><g><g><path d="M623.8 318.961 614.837 325.479 606.981 319.763 599.124 325.479 590.165 318.961 591.165 339 592.635 339C588.748 346.936 592.03 356.52 599.966 360.407 607.902 364.294 617.486 361.012 621.373 353.076 623.548 348.636 623.548 343.44 621.373 339L622.8 339ZM621 346C621.023 353.732 614.774 360.019 607.042 360.042 599.31 360.065 593.023 353.816 593 346.084 592.993 343.596 593.648 341.151 594.9 339L619.107 339C620.347 341.124 621 343.54 621 346ZM620.9 337 593.067 337 592.367 323.039 599.12 327.952 606.977 322.237 614.833 327.952 621.588 323.039Z" fill="#000000" fill-rule="nonzero" fill-opacity="1"/><path d="M635.533 375.525C630.943 371.991 625.685 369.424 620.075 367.979 618.783 367.592 617.482 367.258 616.209 366.986L615.702 366.877 615.321 367.23C611.246 371 608.484 371 607 371 605.516 371 602.731 371 598.676 367.28L598.297 366.932 597.797 367.038C596.572 367.296 595.278 367.611 593.94 367.976 588.398 369.6 583.17 372.15 578.479 375.518 576.328 377.203 575.05 379.768 575 382.5L575 398 577 398 577 382.5C577.044 380.391 578.03 378.413 579.688 377.108 584.178 373.894 589.177 371.46 594.476 369.908 595.586 369.608 596.676 369.336 597.711 369.108 601.6 372.527 604.584 373 607 373 609.416 373 612.384 372.521 616.29 369.051 617.351 369.291 618.43 369.574 619.513 369.899 624.868 371.272 629.889 373.715 634.275 377.08 635.952 378.385 636.953 380.375 637 382.5L637 398 639 398 639 382.5C638.952 379.772 637.678 377.211 635.533 375.525Z" fill="#000000" fill-rule="nonzero" fill-opacity="1"/></g></g></g></g></g></svg>