<svg width="96" height="97" xmlns="http://www.w3.org/2000/svg" xmlns:xlink="http://www.w3.org/1999/xlink" xml:space="preserve" overflow="hidden"><g transform="translate(-824 -253)"><g><g><g><g><path d="M904.042 335.956 904.042 319.965C903.99 317.459 902.816 315.11 900.842 313.565 896.442 309.965 890.848 307.565 885.251 305.965 880.975 304.655 876.53 303.982 872.058 303.965 867.591 304.042 863.154 304.715 858.865 305.965 853.275 307.597 848.003 310.167 843.274 313.565 841.3 315.109 840.125 317.459 840.074 319.965L840.074 335.956Z" fill="#000000" fill-rule="nonzero" fill-opacity="1"/><path d="M857.236 278C853.923 286.186 857.873 295.509 866.06 298.822 874.246 302.135 883.569 298.185 886.882 289.999 888.439 286.151 888.439 281.848 886.882 278Z" fill="#000000" fill-rule="nonzero" fill-opacity="1"/><path d="M855.36 276.001 854.412 257 863.195 263.388 871.979 257 880.762 263.388 889.546 257 888.598 276.001 855.36 276.001Z" fill="#000000" fill-rule="nonzero" fill-opacity="1"/></g></g></g></g></g></svg>