<svg width="98" height="98" xmlns="http://www.w3.org/2000/svg" xmlns:xlink="http://www.w3.org/1999/xlink" xml:space="preserve" overflow="hidden"><g transform="translate(-242 -390)"><g><g><g><g><path d="M290.984 400.86C291.221 400.86 291.414 400.667 291.414 400.43 291.414 400.193 291.221 400 290.984 400 290.746 400 290.554 400.193 290.554 400.43 290.554 400.667 290.746 400.86 290.984 400.86Z" fill="#000000" fill-rule="nonzero" fill-opacity="1"/><path d="M299.048 473.078C298.45 472.27 297.734 471.555 296.925 470.958L303.676 464.207C300.541 461.513 296.628 459.89 292.506 459.576L292.506 469.125C291.513 468.958 290.499 468.958 289.506 469.125L289.506 459.576C285.384 459.89 281.47 461.513 278.335 464.208L285.086 470.959C284.276 471.555 283.56 472.27 282.962 473.078L276.213 466.329C273.502 469.483 271.875 473.423 271.571 477.571 275.689 478.25 279.843 478.684 284.012 478.871 284.18 475.009 287.447 472.014 291.309 472.182 294.948 472.34 297.857 475.261 298 478.9 302.169 478.728 306.324 478.308 310.443 477.641 310.154 473.468 308.526 469.501 305.8 466.328Z" fill="#000000" fill-rule="nonzero" fill-opacity="1"/><path d="M322 455.959C321.891 453.051 320.545 450.328 318.3 448.477 315.158 445.81 310.849 443.515 304.828 441.284L301.628 439.971C301.253 439.817 301.008 439.452 301.008 439.046L301.008 438 306.882 438C306.882 438 313.156 426.578 308.182 413.859 308.561 413.206 308.762 412.465 308.764 411.71L308.764 409.71C311.764 408.27 313.504 406.47 313.504 404.5 313.484 399.81 303.414 395 290.984 395 278.554 395 268.484 399.81 268.484 404.5 268.484 406.5 270.254 408.27 273.224 409.71L273.224 411.8C273.227 412.541 273.419 413.27 273.784 413.915 268.851 426.611 275.1 438 275.1 438L281 438 281 439.046C281 439.452 280.755 439.817 280.379 439.971L277.265 441.254C271.2 443.5 266.871 445.8 263.716 448.477 261.46 450.338 260.111 453.077 260.011 456L260.019 473.57 260.909 474.163C263.293 475.533 265.894 476.486 268.599 476.979 269.026 472.246 270.946 467.771 274.082 464.2L269.438 459.556C268.852 458.97 268.853 458.02 269.439 457.435 270.025 456.849 270.974 456.849 271.56 457.435L276.2 462.077C279.905 458.823 284.58 456.882 289.5 456.556L289.5 450C289.5 449.172 290.172 448.5 291 448.5 291.828 448.5 292.5 449.172 292.5 450L292.5 456.556C297.42 456.881 302.095 458.822 305.8 462.076L310.443 457.433C311.039 456.857 311.988 456.874 312.564 457.47 313.125 458.051 313.125 458.973 312.564 459.554L307.929 464.2C311.084 467.794 313.007 472.304 313.416 477.069 316.859 476.302 319.597 475.315 321.216 474.104L322.016 473.504ZM279.009 424 279.009 417.817C286.531 421.774 295.531 421.725 303.009 417.685L303.009 424C303.009 430.627 297.636 436 291.009 436 284.382 436 279.009 430.627 279.009 424ZM286.209 404.309C286.235 404.164 286.339 404.045 286.479 403.999 286.611 403.938 286.766 403.957 286.879 404.049L288.449 405.259C288.562 405.342 288.62 405.48 288.599 405.619 288.59 405.761 288.501 405.885 288.369 405.939L287.869 406.149C288.197 407.389 289.216 408.326 290.479 408.549L290.479 403.149 286.969 403.149 286.969 402.07 290.479 402.07 290.479 401.8C289.694 401.502 289.3 400.624 289.598 399.839 289.896 399.054 290.774 398.66 291.559 398.958 292.344 399.257 292.738 400.134 292.44 400.919 292.286 401.325 291.965 401.646 291.559 401.8L291.559 402.07 295.029 402.07 295.029 403.15 291.479 403.15 291.479 408.55C292.733 408.336 293.75 407.416 294.089 406.19L293.589 405.98C293.46 405.921 293.37 405.8 293.349 405.66 293.329 405.519 293.387 405.378 293.499 405.29L295.069 404.08C295.177 403.974 295.339 403.942 295.479 404 295.61 404.056 295.702 404.178 295.719 404.32L295.979 406.32C295.996 406.454 295.948 406.588 295.849 406.68 295.736 406.769 295.584 406.792 295.449 406.74L295.129 406.6C294.709 407.969 293.644 409.045 292.279 409.48L291.169 410.08C291.051 410.146 290.907 410.146 290.789 410.08L289.659 409.47C288.302 409.036 287.244 407.963 286.829 406.6L286.509 406.74C286.374 406.792 286.223 406.769 286.109 406.68 285.996 406.592 285.936 406.453 285.949 406.31ZM291.009 444C288.36 444.025 285.721 443.657 283.18 442.908 284.335 441.959 285.004 440.541 285 439.046L285 438.821C288.848 440.392 293.158 440.392 297.006 438.821L297.006 439.043C297.002 440.539 297.672 441.958 298.829 442.907 296.291 443.656 293.655 444.025 291.009 444Z" fill="#000000" fill-rule="nonzero" fill-opacity="1"/></g></g></g></g></g></svg>