<svg width="97" height="98" xmlns="http://www.w3.org/2000/svg" xmlns:xlink="http://www.w3.org/1999/xlink" xml:space="preserve" overflow="hidden"><g transform="translate(-649 -290)"><g><g><g><g><path d="M702 371.9 709.714 367.272 709.714 360.372 702 365ZM704 366.129 707.714 363.9 707.714 366.139 704 368.367Z" fill="#000000" fill-rule="nonzero" fill-opacity="1"/><path d="M711.541 298.891 699.47 309.855 698 308.964 696.511 309.864 684.429 298.891 655.8 316.246 667.862 327.229 667.429 327.492 667.429 329.433 655.8 340.022 667.433 347.072 667.433 361.772 698 380.3 728.571 361.775 728.571 347.054 740.171 340.022 728.571 329.46 728.571 327.492 728.12 327.218 740.175 316.246ZM659.122 316.569 684.189 301.376 694.727 310.947 673.964 323.531 669.63 326.131ZM659.122 339.699 669.647 330.119 694.727 345.319 684.189 354.891ZM697 377.358 669.429 360.648 669.429 348.284 684.429 357.376 696.512 346.4 697 346.7ZM698 344.86 670.231 328.132 675.088 325.189 697.993 311.436 725.779 328.176 725.552 328.312 725.532 328.278 717.214 333.319ZM726.571 360.648 699 377.358 699 346.7 699.47 346.415 711.541 357.376 726.571 348.267ZM736.849 339.7 711.781 354.891 701.255 345.33 718.191 335.065 726.366 330.157ZM726.336 326.137 701.255 310.937 711.781 301.377 736.849 316.569Z" fill="#000000" fill-rule="nonzero" fill-opacity="1"/></g></g></g></g></g></svg>