<svg width="96" height="96" xmlns="http://www.w3.org/2000/svg" xmlns:xlink="http://www.w3.org/1999/xlink" xml:space="preserve" overflow="hidden"><g transform="translate(-196 -460)"><g><path d="M252.969 484.233C252.541 483.552 251.826 483.104 251.027 483.016 250.265 482.927 249.504 483.191 248.96 483.732L212.588 518.832 207.067 524.121 213.458 535.196 220.776 532.917 230.527 530.151 230.465 530.208 234.949 535.153 249.076 531.253 250.376 524.57 250.276 524.551 269.368 519.136 269.48 519.097C270.246 518.771 270.833 518.128 271.085 517.334 271.318 516.622 271.228 515.843 270.838 515.203ZM209.584 524.477 213.084 521.127 218.996 531.374 214.396 532.808ZM247.35 529.648 235.6 532.894 232.58 529.564 248.23 525.125ZM269.184 516.728C269.115 516.945 268.963 517.125 268.76 517.228L220.96 530.785 214.565 519.7 250.365 485.16C250.48 485.041 250.644 484.982 250.809 485 250.991 485.019 251.156 485.117 251.26 485.267L269.136 516.233C269.225 516.383 269.242 516.564 269.184 516.728Z" fill="#000000" fill-rule="nonzero" fill-opacity="1"/><path d="M270.254 493.839 280.224 488.229 281.204 489.972 271.234 495.581Z" fill="#000000" fill-rule="nonzero" fill-opacity="1"/><path d="M271.751 502.84 272.291 500.914 283.307 504.003 282.767 505.929Z" fill="#000000" fill-rule="nonzero" fill-opacity="1"/><path d="M264.274 489.757 267.363 478.741 269.289 479.281 266.2 490.297Z" fill="#000000" fill-rule="nonzero" fill-opacity="1"/></g></g></svg>