<svg width="98" height="97" xmlns="http://www.w3.org/2000/svg" xmlns:xlink="http://www.w3.org/1999/xlink" xml:space="preserve" overflow="hidden"><g transform="translate(-142 -373)"><g><g><g><g><path d="M157.625 437.669C156.939 436.479 155.417 436.071 154.227 436.758 153.038 437.444 152.63 438.965 153.316 440.155L158.288 448.772C158.974 449.963 160.496 450.372 161.686 449.685 162.877 448.999 163.286 447.478 162.6 446.287Z" fill="#000000" fill-rule="nonzero" fill-opacity="1"/><path d="M194 442.724 182.482 446.038 179.748 443.055 194.748 438.746ZM218.2 429.881 212.648 420.269 205.185 407.344 199.634 397.732C199.161 396.95 198.143 396.699 197.361 397.172 197.254 397.237 197.155 397.314 197.065 397.401L159.282 433.858 166.739 446.784 176.185 444.132 180.411 448.689C181.042 449.372 181.994 449.657 182.896 449.435L195.408 445.872C195.574 445.789 195.822 445.707 195.988 445.624 196.6 445.27 197.024 444.663 197.148 443.967L198.308 437.835 217.282 432.449C218.211 432.081 218.666 431.029 218.298 430.099 218.268 430.025 218.233 429.951 218.194 429.881Z" fill="#000000" fill-rule="nonzero" fill-opacity="1"/><path d="M217.165 406.522 227.136 400.914 229.097 404.4 219.126 410.008Z" fill="#000000" fill-rule="nonzero" fill-opacity="1"/><path d="M218.846 417.342 219.925 413.491 230.941 416.575 229.863 420.427Z" fill="#000000" fill-rule="nonzero" fill-opacity="1"/><path d="M210.684 403.031 213.77 392.016 217.622 393.095 214.536 404.111Z" fill="#000000" fill-rule="nonzero" fill-opacity="1"/></g></g></g></g></g></svg>