<svg width="96" height="96" xmlns="http://www.w3.org/2000/svg" xmlns:xlink="http://www.w3.org/1999/xlink" xml:space="preserve" overflow="hidden"><g transform="translate(-372 -412)"><g><path d="M399.2 481.3 405 471 402.1 468.5C400.8 467.4 400.6 465.3 401.8 464 402 463.8 402.1 463.6 402.3 463.5L404.9 461.6 402 461.5C400.3 461.4 398.8 460.6 397.8 459.3 396 456.9 396.5 453.4 398.9 451.6L410.9 442.6 421.5 434.9C417.3 435.1 413.2 435.9 409.2 437.1L374.2 447.8C374.2 464.1 382.6 465.1 389.9 468.3 396 470.9 398.3 476.4 399.2 481.3Z" fill="#000000" fill-rule="nonzero" fill-opacity="1"/><path d="M432.2 429.3C433.5 433.5 438 435.9 442.2 434.6 446.4 433.3 448.8 428.8 447.5 424.6 446.2 420.4 441.7 418 437.5 419.3 437.2 419.4 436.8 419.5 436.5 419.7 433.1 421.3 428 423.3 425.1 422.7 421.3 421.9 425.3 428.5 432.2 429.3Z" fill="#000000" fill-rule="nonzero" fill-opacity="1"/><path d="M433.2 479.6C433.2 478.8 432.9 478.1 432.4 477.4L432.4 477.3 431 475.2 435.9 473.7 431.7 459 436 452.7C436.1 452.6 436.2 452.6 436.3 452.5L464.4 429.8C465.9 428.6 466.1 426.4 464.9 424.9 464.9 424.9 464.9 424.9 464.9 424.9 463.7 423.4 461.5 423.2 460 424.4 460 424.4 460 424.4 460 424.4L443 438.1C438 436.2 432.8 435.1 427.5 434.9 425.5 435.1 423.5 435.8 421.9 437.2L412.2 444.2 400.2 453.2C398.7 454.4 398.3 456.6 399.5 458.1 400.7 459.6 402.9 460 404.4 458.8 404.4 458.8 404.4 458.8 404.4 458.8L416.4 449.8 421.9 445.8 416.1 456 402.3 466 407.6 470.5 393.8 495C392.7 496.9 393.3 499.4 395.3 500.5 397.3 501.6 399.7 501 400.8 499 400.8 499 400.8 498.9 400.8 498.9L414 475.4 419.9 476.2 424 480.3 415 492.6C413.7 494.4 414 496.9 415.8 498.2 417.6 499.5 420.1 499.2 421.4 497.4 421.4 497.4 421.5 497.3 421.5 497.3L432.5 482.2C432.9 481.6 433.2 480.8 433.2 480.1L433.2 479.6ZM433 447.8 432.4 452.2 430.1 448.4 425.7 449.3 428.6 445.9 426.8 442 430.7 443.7 433.7 440.4 433.3 444.9 437.2 446.6 433 447.8Z" fill="#000000" fill-rule="nonzero" fill-opacity="1"/></g></g></svg>