<svg width="97" height="96" xmlns="http://www.w3.org/2000/svg" xmlns:xlink="http://www.w3.org/1999/xlink" xml:space="preserve" overflow="hidden"><g transform="translate(-292 -220)"><g><g><g><g><path d="M385.566 233.615C384.042 231.742 381.288 231.456 379.412 232.977L363.393 245.89C359.264 244.362 354.945 243.405 350.557 243.044 343.711 242.327 336.792 242.822 330.118 244.506L295 255.245 295 255.984C295 270.653 301.761 273.336 308.3 275.931 309.215 276.294 310.131 276.658 311.029 277.057 317.4 279.888 319.582 284.613 320.817 290.829L322.281 288.222C320.967 283.063 318.458 278.169 311.842 275.229 310.919 274.819 309.978 274.445 309.042 274.072 302.963 271.662 297.22 269.382 297.006 256.723L330.688 246.423C334.88 245.25 339.208 244.635 343.56 244.593 343.209 244.819 342.875 245.069 342.56 245.343L333.149 252.135 321.5 260.873C319.576 262.344 319.203 265.093 320.665 267.024 321.383 267.928 322.416 268.53 323.557 268.708 324.704 268.902 325.88 268.6 326.793 267.878L338.393 259.172 347.054 252.951C347.511 252.641 347.631 252.02 347.322 251.562 347.012 251.105 346.39 250.985 345.933 251.295 345.918 251.305 345.903 251.316 345.888 251.327L337.214 257.56 325.568 266.3C325.088 266.679 324.471 266.837 323.868 266.735 323.223 266.63 322.641 266.288 322.233 265.778 321.462 264.72 321.685 263.24 322.733 262.456L334.338 253.749 343.8 246.907C344.875 246.097 346.093 245.496 347.39 245.136 348.057 244.978 348.743 244.922 349.427 244.969 354.148 245.256 358.798 246.264 363.214 247.958 363.548 248.088 363.925 248.029 364.204 247.805L380.665 234.536C381.679 233.705 383.174 233.854 384.005 234.868 384.836 235.882 384.687 237.377 383.673 238.208L356.458 260.2C356.431 260.223 356.403 260.247 356.378 260.273 356.221 260.431 356.221 260.431 354.478 263.824 354.089 264.58 353.651 265.432 353.316 266.077 351.734 265.971 345.633 265.45 341.177 263.493L343.868 258.758C344.127 258.27 343.942 257.665 343.454 257.406 342.986 257.157 342.405 257.317 342.13 257.77L338.765 263.689 325.11 273.705C324.665 274.032 324.569 274.658 324.896 275.103 324.91 275.122 324.925 275.14 324.94 275.158 326.411 276.783 328.075 278.224 329.893 279.448L316.984 302.29C316.36 303.373 316.195 304.661 316.527 305.866 316.854 307.049 317.648 308.049 318.727 308.635 319.445 309.035 320.254 309.247 321.076 309.251 321.474 309.252 321.87 309.2 322.254 309.098 323.452 308.778 324.465 307.978 325.054 306.886 325.092 306.81 325.121 306.73 325.138 306.647L338.238 283.406C338.544 283.493 338.844 283.586 339.159 283.663 339.93 283.852 340.714 283.995 341.501 284.116L346.17 288.4 337.7 300.042C336.183 302.087 336.607 304.973 338.647 306.496 339.457 307.086 340.433 307.405 341.435 307.407 341.646 307.407 341.856 307.393 342.065 307.365 343.255 307.209 344.331 306.579 345.05 305.618L345.086 305.582C345.123 305.544 345.156 305.503 345.186 305.459L356.012 290.534C356.505 289.809 356.782 288.959 356.812 288.083L356.812 287.631C356.792 286.682 356.462 285.765 355.871 285.021L354.979 283.9C356.979 283.593 358.291 283.281 358.439 283.245 358.976 283.115 359.305 282.574 359.175 282.037 359.17 282.017 359.164 281.996 359.158 281.976L354.715 267.707C354.957 267.253 355.396 266.401 356.252 264.737 356.867 263.537 357.616 262.087 357.859 261.637L384.927 239.767C386.799 238.243 387.085 235.491 385.566 233.615ZM323.3 305.823C323.26 305.898 323.231 305.977 323.214 306.06 322.88 306.604 322.351 306.999 321.735 307.165 321.042 307.34 320.307 307.239 319.687 306.883 319.083 306.554 318.638 305.993 318.455 305.33 318.266 304.64 318.362 303.903 318.721 303.284L331.582 280.523C333.08 281.417 334.657 282.172 336.292 282.779ZM354.276 286.223C354.603 286.621 354.791 287.114 354.813 287.628L354.813 288.08C354.785 288.548 354.633 289.001 354.371 289.39L343.619 304.22 343.586 304.254C343.547 304.292 343.512 304.333 343.48 304.377 343.083 304.93 342.475 305.294 341.8 305.383 341.1 305.475 340.392 305.293 339.823 304.875 338.677 304.022 338.44 302.402 339.292 301.257 339.302 301.243 339.313 301.229 339.323 301.216L348.316 288.852C348.616 288.441 348.558 287.87 348.183 287.526L344.833 284.46C345.594 284.501 346.35 284.527 347.091 284.527 348.954 284.522 350.815 284.414 352.666 284.204ZM356.924 281.523C354.13 282.073 346.254 283.341 339.633 281.723 334.946 280.487 330.663 278.047 327.21 274.645L339.177 265.862C344.138 268.307 351.082 268.933 353.042 269.062Z" fill="#000000" fill-rule="nonzero" fill-opacity="1"/><path d="M353.1 237.287 353.1 237.318C353.137 237.318 353.174 237.318 353.211 237.318 354.264 240.666 357.363 242.946 360.873 242.957 361.664 242.957 362.45 242.838 363.205 242.603 367.429 241.297 369.796 236.814 368.49 232.59 367.453 229.233 364.348 226.945 360.835 226.948 360.043 226.947 359.256 227.066 358.5 227.3 358.151 227.39 357.815 227.524 357.5 227.7 354.523 229.1 350.241 230.81 347.275 230.81 346.881 230.814 346.487 230.777 346.1 230.7 345.911 230.658 345.719 230.635 345.525 230.633 342.781 230.636 346.655 236.481 353.1 237.287ZM362.612 240.7C362.048 240.875 361.461 240.964 360.871 240.964 358.453 240.945 356.276 239.491 355.333 237.264 357.801 237.054 360.114 235.973 361.858 234.213 363.419 234.948 365.112 235.36 366.836 235.423 366.64 237.88 364.967 239.971 362.612 240.7ZM358.355 229.512 358.455 229.469 358.579 229.387C358.69 229.341 358.803 229.302 358.918 229.269L359.095 229.213C359.658 229.038 360.245 228.948 360.835 228.948 363.551 228.964 365.926 230.781 366.652 233.398L366.641 233.412C365.072 233.314 363.544 232.87 362.166 232.112L361.43 231.655 360.873 232.319C359.02 234.434 356.276 235.547 353.473 235.319L353.431 235.314C351.354 235.075 349.4 234.202 347.836 232.814 347.832 232.81 347.832 232.804 347.836 232.8 347.838 232.798 347.84 232.797 347.843 232.797 351.133 232.615 355.333 230.934 358.355 229.512Z" fill="#000000" fill-rule="nonzero" fill-opacity="1"/><path d="M352.798 255.706 355.115 258.983 355.373 254.979 359.081 253.628 355.457 252.346 355.529 248.264 353.038 251.431 349.414 250.149 351.286 253.548 348.891 256.799 352.798 255.706Z" fill="#000000" fill-rule="nonzero" fill-opacity="1"/></g></g></g></g></g></svg>