<svg width="96" height="97" xmlns="http://www.w3.org/2000/svg" xmlns:xlink="http://www.w3.org/1999/xlink" xml:space="preserve" overflow="hidden"><g transform="translate(-24 -305)"><g><g><g><g><path d="M72 326C73.933 326 75.5 324.433 75.5 322.5 75.5 320.567 73.933 319 72 319L71.9 319C69.9974 319.034 68.4788 320.597 68.5 322.5 68.5033 324.432 70.0684 325.997 72 326ZM71.934 321 72 321C72.8284 321 73.5 321.672 73.4999 322.5 73.4999 323.328 72.8283 324 71.9999 324 71.1714 324 70.4999 323.328 70.4999 322.5 70.4999 322.495 70.5 322.491 70.5 322.486 70.4872 321.68 71.1283 321.016 71.934 321Z" fill="#000000" fill-rule="nonzero" fill-opacity="1"/><path d="M52 342 91 342 91 344 52 344Z" fill="#000000" fill-rule="nonzero" fill-opacity="1"/><path d="M52 350 72 350 72 352 52 352Z" fill="#000000" fill-rule="nonzero" fill-opacity="1"/><path d="M76 371 92 371 92 373 76 373Z" fill="#000000" fill-rule="nonzero" fill-opacity="1"/><path d="M57.54 386.235 62.11 377.635 66.68 386.235 68.45 382.462 72.565 383.105 68.011 374.518C68.932 374.115 69.5074 373.184 69.456 372.18 70.0964 371.943 70.6021 371.439 70.842 370.8 71.067 370.23 71.067 369.597 70.842 369.027 71.7485 368.035 71.691 366.5 70.713 365.579 70.987 364.952 70.987 364.24 70.713 363.613 70.4709 363.048 70.0208 362.598 69.456 362.356 69.427 361.75 69.1744 361.175 68.747 360.744 68.2972 360.284 67.68 360.027 67.037 360.032 66.995 360.032 66.953 360.032 66.911 360.032 66.6726 359.391 66.1665 358.885 65.525 358.647 65.2382 358.535 64.933 358.477 64.625 358.477 64.3254 358.476 64.0285 358.534 63.751 358.647 63.3012 358.238 62.7176 358.008 62.11 358 61.4287 357.997 60.7768 358.277 60.31 358.773 59.9935 358.639 59.6536 358.57 59.31 358.568 58.9775 358.568 58.6486 358.637 58.345 358.773 57.7805 359.016 57.3307 359.466 57.088 360.03 56.4819 360.059 55.908 360.312 55.477 360.739 54.9866 361.22 54.7284 361.89 54.769 362.576 54.1274 362.814 53.6214 363.32 53.383 363.962 53.1567 364.531 53.1567 365.166 53.383 365.735 52.975 366.186 52.7459 366.77 52.739 367.378 52.736 368.059 53.0159 368.711 53.512 369.178 53.238 369.805 53.238 370.517 53.512 371.144 53.7547 371.708 54.2045 372.158 54.769 372.401 54.7974 373.007 55.0497 373.581 55.477 374.012 55.6891 374.223 55.9382 374.392 56.212 374.512L51.659 383.097 55.775 382.454ZM67.276 380.255 66.568 381.765 63.628 376.233C63.7299 376.158 63.8256 376.074 63.914 375.983 64.2303 376.118 64.5703 376.188 64.914 376.189 65.247 376.19 65.5763 376.12 65.88 375.983 66.0534 375.904 66.2175 375.805 66.369 375.689L68.927 380.512ZM55.331 370.329C55.2882 370.208 55.2951 370.075 55.35 369.959L55.891 368.673 54.872 367.721C54.7802 367.631 54.7301 367.507 54.734 367.378 54.7414 367.247 54.7999 367.124 54.897 367.036L55.697 366.106 55.23 364.973C55.201 364.874 55.2081 364.768 55.25 364.673 55.2826 364.572 55.359 364.491 55.458 364.452L56.834 363.945 56.764 362.48C56.7514 362.357 56.7982 362.235 56.89 362.152 56.9729 362.073 57.0825 362.028 57.197 362.026L58.456 361.956 58.936 360.791C58.985 360.699 59.0661 360.628 59.164 360.591 59.2093 360.571 59.2585 360.561 59.308 360.562 59.3852 360.563 59.4613 360.58 59.532 360.611L60.819 361.152 61.771 360.132C61.8609 360.043 61.9836 359.995 62.11 360 62.2406 360.008 62.363 360.066 62.451 360.163L63.382 360.963 64.515 360.496C64.5507 360.482 64.5888 360.476 64.627 360.477 64.6908 360.478 64.7539 360.491 64.813 360.515 64.9143 360.548 64.9954 360.625 65.034 360.724L65.572 362.099 67.037 362.029C67.1511 362.023 67.2617 362.07 67.337 362.156 67.4166 362.239 67.4617 362.349 67.463 362.464L67.533 363.722 68.699 364.202C68.7886 364.253 68.8573 364.333 68.893 364.43 68.9358 364.551 68.9289 364.684 68.874 364.8L68.332 366.086 69.352 367.038C69.4439 367.128 69.494 367.252 69.49 367.38 69.4884 367.487 69.4479 367.589 69.376 367.668L68.511 368.605 68.996 369.786C69.026 369.885 69.0192 369.992 68.977 370.086 68.9441 370.187 68.8678 370.268 68.769 370.307L67.393 370.814 67.462 372.279C67.4757 372.402 67.4291 372.524 67.337 372.606 67.2539 372.685 67.144 372.731 67.029 372.733L65.771 372.802 65.291 373.968C65.2407 374.058 65.1599 374.127 65.063 374.163 65.0172 374.183 64.9678 374.193 64.918 374.192 64.8408 374.19 64.7647 374.174 64.694 374.143L63.4 373.6 62.448 374.621C62.3582 374.713 62.2343 374.763 62.106 374.759 61.975 374.752 61.8522 374.693 61.764 374.596L60.834 373.796 59.701 374.263C59.6652 374.276 59.6272 374.282 59.589 374.281 59.5251 374.281 59.462 374.268 59.403 374.243 59.3016 374.211 59.2203 374.134 59.182 374.035L58.644 372.66 57.179 372.729C57.065 372.735 56.9544 372.689 56.879 372.603 56.7994 372.52 56.7541 372.41 56.752 372.295L56.683 371.037 55.517 370.557C55.4302 370.505 55.3643 370.424 55.331 370.329ZM57.9 375.6C58.1301 375.821 58.4021 375.994 58.7 376.108 58.9869 376.22 59.2921 376.277 59.6 376.277 59.8996 376.278 60.1965 376.221 60.474 376.108 60.517 376.145 60.565 376.175 60.61 376.208L57.658 381.76 56.95 380.25 55.3 380.507Z" fill="#000000" fill-rule="nonzero" fill-opacity="1"/><path d="M62.11 372.954C65.1895 372.955 67.6869 370.46 67.688 367.38 67.6891 364.301 65.1935 361.803 62.114 361.802 59.0345 361.801 56.5371 364.297 56.536 367.376 56.536 367.377 56.536 367.377 56.536 367.378 56.5366 370.456 59.0315 372.952 62.11 372.954ZM62.11 363.803C64.085 363.802 65.6869 365.402 65.688 367.377 65.6891 369.352 64.089 370.954 62.114 370.955 60.139 370.956 58.5371 369.356 58.536 367.381 58.536 367.38 58.536 367.379 58.536 367.378 58.5365 365.404 60.1357 363.803 62.11 363.8Z" fill="#000000" fill-rule="nonzero" fill-opacity="1"/><path d="M102 324.979C102 322.77 100.209 320.979 98 320.979L83 320.979 83 318.979C82.9961 316.219 80.7598 313.983 78 313.979L66 313.979C63.2399 313.982 61.0033 316.219 61 318.979L61 320.979 46 320.979C43.792 320.982 42.0028 322.771 42 324.979L42 390C42 392.209 43.7909 394 46 394L98 394C100.209 394 102 392.209 102 390ZM59 322.979 63 322.979 63 318.979C63 317.322 64.3431 315.979 66 315.979L78 315.979C79.6569 315.979 81 317.322 81 318.979L81 322.979 85 322.979 85 331 59 331ZM98 392 46 392C44.8954 392 44 391.105 44 390L44 324.979C44 323.874 44.8954 322.979 46 322.979L57 322.979 57 333 87 333 87 322.979 98 322.979C99.1046 322.979 100 323.874 100 324.979L100 390C100 391.105 99.1046 392 98 392Z" fill="#000000" fill-rule="nonzero" fill-opacity="1"/></g></g></g></g></g></svg>