<svg width="97" height="96" xmlns="http://www.w3.org/2000/svg" xmlns:xlink="http://www.w3.org/1999/xlink" xml:space="preserve" overflow="hidden"><g transform="translate(-57 -36)"><g><g><g><g><path d="M77.681 122.706C77.2432 123.08 76.5978 123.08 76.16 122.706L70.292 116.838C69.9071 116.415 69.8994 115.771 70.274 115.338L94.99 91.777 93.615 90.339 68.878 113.9C67.7001 115.11 67.7001 117.039 68.878 118.249L74.746 124.117C75.9644 125.296 77.9008 125.289 79.11 124.1L102.5 99.638 101.129 98.2Z" fill="#000000" fill-rule="nonzero" fill-opacity="1"/><path d="M92.427 68.466 100.069 60.735C101.242 59.5312 101.242 57.6118 100.069 56.408L90.635 46.876C89.4296 45.703 87.5094 45.703 86.304 46.876L78.34 54.845 77.514 54.07C76.3097 52.8943 74.3873 52.8943 73.183 54.07L70.169 57.083C69.0089 58.2815 68.9987 60.1812 70.146 61.392L70.946 62.24 68.812 64.375C68.2772 64.8769 67.8664 65.4962 67.612 66.184L62.268 80.168C61.8194 81.2537 62.1025 82.5043 62.975 83.291 63.7986 84.1196 65.0071 84.4359 66.131 84.117L80.719 79.352C81.4869 79.1144 82.1877 78.6984 82.764 78.138L84.471 76.43 130.058 124.124C131.264 125.296 133.183 125.296 134.389 124.124L140.125 118.388C141.301 117.175 141.294 115.245 140.109 114.041ZM71.583 58.5 74.6 55.485C75.0372 55.0949 75.7002 55.1044 76.126 55.507L76.926 56.259 72.358 60.827 71.583 60C71.1964 59.5747 71.1964 58.9253 71.583 58.5ZM81.35 76.723C80.9942 77.0615 80.5635 77.3112 80.093 77.452L65.577 82.2C65.12 82.3197 64.6345 82.1725 64.321 81.819 64.0809 81.5946 63.9992 81.2479 64.114 80.94L69.491 66.862C69.6493 66.4548 69.8995 66.0897 70.222 65.795L87.722 48.295C88.1476 47.9093 88.7964 47.9093 89.222 48.295L98.656 57.826C99.044 58.2534 99.044 58.9056 98.656 59.333ZM138.711 116.974 132.975 122.709C132.555 123.091 131.915 123.099 131.487 122.726L85.887 75.016 91.018 69.884 138.711 115.471C139.097 115.898 139.097 116.547 138.711 116.974Z" fill="#000000" fill-rule="nonzero" fill-opacity="1"/><path d="M135.636 53.442 120.85 43.585C119.64 42.7091 117.976 42.8293 116.905 43.87L108.105 52.57 108.027 52.656C107.507 53.3051 107.223 54.1114 107.221 54.943L107.234 55.107C107.378 55.9633 107.85 56.7299 108.549 57.245L120.217 64.963 106.648 77.909 108.092 79.289 121.8 66.225 126.87 71.3 113.906 84.847 115.348 86.224 128.129 72.874 135.7 84.231C136.249 84.8993 137.026 85.3412 137.881 85.472 138.812 85.5872 139.744 85.2695 140.411 84.61L149.222 75.9C150.259 74.8432 150.391 73.1952 149.535 71.987L139.162 56.9 135.915 53.648ZM147.812 74.483 139 83.193C138.789 83.3974 138.504 83.5081 138.21 83.5 137.869 83.4534 137.552 83.2956 137.31 83.051L129.041 70.651 122.441 64.051 109.723 55.634C109.47 55.4457 109.292 55.1729 109.223 54.865 109.24 54.5336 109.356 54.215 109.557 53.951L118.317 45.288C118.703 44.9428 119.277 44.9133 119.696 45.217L134.58 55.142 137.637 58.2 147.911 73.154C148.188 73.5669 148.147 74.1157 147.812 74.483Z" fill="#000000" fill-rule="nonzero" fill-opacity="1"/></g></g></g></g></g></svg>