<svg width="97" height="96" xmlns="http://www.w3.org/2000/svg" xmlns:xlink="http://www.w3.org/1999/xlink" xml:space="preserve" overflow="hidden"><g transform="translate(-1149 -492)"><g><g><g><g><path d="M1178 510 1164.46 510C1164.46 510 1164.91 516.32 1169.46 518.12 1170.96 518.72 1171.26 520.51 1171.3 521.64 1171.3 521.82 1171.3 522.64 1171.3 522.64 1171.59 525.386 1174.05 527.379 1176.79 527.091 1177.21 527.047 1177.61 526.953 1178 526.81Z" fill="#000000" fill-rule="nonzero" fill-opacity="1"/><path d="M1178 530 1164.46 530C1164.46 530 1164.91 536.32 1169.46 538.12 1170.96 538.72 1171.26 540.51 1171.3 541.64 1171.3 541.82 1171.3 542.64 1171.3 542.64 1171.59 545.386 1174.05 547.379 1176.79 547.091 1177.21 547.047 1177.61 546.953 1178 546.81Z" fill="#000000" fill-rule="nonzero" fill-opacity="1"/><path d="M1178 551 1164.46 551C1164.46 551 1164.91 557.32 1169.46 559.12 1170.96 559.72 1171.26 561.51 1171.3 562.64 1171.3 562.82 1171.3 563.64 1171.3 563.64 1171.59 566.386 1174.05 568.379 1176.79 568.091 1177.21 568.047 1177.61 567.953 1178 567.81Z" fill="#000000" fill-rule="nonzero" fill-opacity="1"/><path d="M1218 510 1231.54 510C1231.54 510 1231.09 516.32 1226.54 518.12 1225.04 518.72 1224.74 520.51 1224.7 521.64 1224.7 521.82 1224.7 522.64 1224.7 522.64 1224.41 525.386 1221.95 527.379 1219.21 527.091 1218.79 527.047 1218.39 526.953 1218 526.81Z" fill="#000000" fill-rule="nonzero" fill-opacity="1"/><path d="M1218 530 1231.54 530C1231.54 530 1231.09 536.32 1226.54 538.12 1225.04 538.72 1224.74 540.51 1224.7 541.64 1224.7 541.82 1224.7 542.64 1224.7 542.64 1224.41 545.386 1221.95 547.379 1219.21 547.091 1218.79 547.047 1218.39 546.953 1218 546.81Z" fill="#000000" fill-rule="nonzero" fill-opacity="1"/><path d="M1218 551 1231.54 551C1231.54 551 1231.09 557.32 1226.54 559.12 1225.04 559.72 1224.74 561.51 1224.7 562.64 1224.7 562.82 1224.7 563.64 1224.7 563.64 1224.41 566.386 1221.95 568.379 1219.21 568.091 1218.79 568.047 1218.39 567.953 1218 567.81Z" fill="#000000" fill-rule="nonzero" fill-opacity="1"/><path d="M1211 504 1185 504C1182.79 504 1181 505.791 1181 508L1181 572C1181 574.209 1182.79 576 1185 576L1211 576C1213.21 576 1215 574.209 1215 572L1215 508C1215 505.791 1213.21 504 1211 504ZM1198 571C1193.03 571 1189 566.971 1189 562 1189 557.029 1193.03 553 1198 553 1202.97 553 1207 557.029 1207 562 1207 566.971 1202.97 571 1198 571ZM1198 549C1193.03 549 1189 544.971 1189 540 1189 535.029 1193.03 531 1198 531 1202.97 531 1207 535.029 1207 540 1207 544.971 1202.97 549 1198 549ZM1198 527C1193.03 527 1189 522.971 1189 518 1189 513.029 1193.03 509 1198 509 1202.97 509 1207 513.029 1207 518 1207 522.971 1202.97 527 1198 527Z" fill="#000000" fill-rule="nonzero" fill-opacity="1"/></g></g></g></g></g></svg>