<svg width="97" height="98" xmlns="http://www.w3.org/2000/svg" xmlns:xlink="http://www.w3.org/1999/xlink" xml:space="preserve" overflow="hidden"><g transform="translate(-652 -506)"><g><g><g><g><path d="M701 564.016C705.971 564.016 710 559.987 710 555.016 710 550.045 705.971 546.016 701 546.016 696.029 546.016 692 550.045 692 555.016 692 559.987 696.029 564.016 701 564.016ZM701 548.016C704.866 548.016 708 551.15 708 555.016 708 558.882 704.866 562.016 701 562.016 697.134 562.016 694 558.882 694 555.016 694.002 551.15 697.134 548.016 701 548.011Z" fill="#000000" fill-rule="nonzero" fill-opacity="1"/><path d="M701 542.01C705.971 542.01 710 537.981 710 533.01 710 528.039 705.971 524.01 701 524.01 696.029 524.01 692 528.039 692 533.01 692 537.981 696.029 542.01 701 542.01ZM701 526.01C704.866 526.01 708 529.144 708 533.01 708 536.876 704.866 540.01 701 540.01 697.134 540.01 694 536.876 694 533.01 694.002 529.144 697.134 526.01 701 526.005Z" fill="#000000" fill-rule="nonzero" fill-opacity="1"/><path d="M701 586.022C705.971 586.022 710 581.993 710 577.022 710 572.051 705.971 568.022 701 568.022 696.029 568.022 692 572.051 692 577.022 692 581.993 696.029 586.022 701 586.022ZM701 570.017C704.866 570.017 708 573.151 708 577.017 708 580.883 704.866 584.017 701 584.017 697.134 584.017 694 580.883 694 577.017 694.005 573.153 697.136 570.022 701 570.017Z" fill="#000000" fill-rule="nonzero" fill-opacity="1"/><path d="M667.461 567.006C667.461 567.006 667.911 573.328 672.461 575.128 673.961 575.728 674.261 577.519 674.301 578.649L674.301 579.649C674.589 582.396 677.001 583.989 680.001 583.989L683.001 583.989 683.001 587.022C683.001 589.231 684.792 591.022 687.001 591.022L715 591.022C717.209 591.022 719 589.231 719 587.022L719 583.989 722 583.989C725 583.989 727.415 582.396 727.7 579.649L727.7 578.649C727.74 577.519 728.04 575.728 729.54 575.128 734.09 573.328 734.54 567.006 734.54 567.006L719 567.006 719 562.989 722 562.989C725 562.989 727.415 561.389 727.7 558.644L727.7 557.644C727.74 556.514 728.04 554.723 729.54 554.123 734.09 552.323 734.54 546.001 734.54 546.001L719 546.001 719 542.001 722 542.001C725 542.001 727.415 540.401 727.7 537.649L727.7 536.649C727.74 535.519 728.04 533.729 729.54 533.128 734.09 531.328 734.54 525.006 734.54 525.006L719 525.006 719 523C719 520.791 717.209 519 715 519L687 519C684.791 519 683 520.791 683 523L683 525 667.461 525C667.461 525 667.911 531.322 672.461 533.122 673.961 533.722 674.261 535.513 674.301 536.643L674.301 537.643C674.589 540.4 677 542 680 542L683 542 683 546 667.461 546C667.461 546 667.911 552.322 672.461 554.122 673.961 554.722 674.261 556.513 674.301 557.643L674.301 558.643C674.589 561.389 677.001 562.988 680.001 562.988L683.001 562.988 683.001 567.005ZM680 581.989C678.363 581.989 676.548 581.341 676.3 579.531L676.3 578.578C676.206 575.917 675.106 574.032 673.2 573.268 671.316 572.523 670.366 570.568 669.9 569.006L683 569.006 683 581.989ZM719 569.006 732.1 569.006C731.627 570.565 730.673 572.528 728.794 573.271 726.894 574.032 725.794 575.917 725.694 578.578L725.694 579.531C725.447 581.342 723.629 581.989 721.994 581.989L719 581.989ZM732.107 548C731.634 549.559 730.68 551.522 728.801 552.265 726.901 553.026 725.801 554.911 725.701 557.572L725.701 558.525C725.454 560.34 723.636 560.989 722.001 560.989L719 560.989 719 548ZM732.107 527.005C731.636 528.563 730.684 530.524 728.797 531.27 726.897 532.031 725.797 533.916 725.697 536.577L725.697 537.531C725.457 539.349 723.639 540 722 540L719 540 719 527.005ZM685 523C685 521.895 685.895 521 687 521L715 521C716.105 521 717 521.895 717 523L717 587.022C717 588.127 716.105 589.022 715 589.022L687 589.022C685.895 589.022 685 588.127 685 587.022ZM680 540C678.364 540 676.548 539.349 676.3 537.531L676.3 536.577C676.206 533.917 675.106 532.032 673.2 531.268 671.316 530.522 670.366 528.562 669.9 527.005L683 527.005 683 540ZM680 560.989C678.363 560.989 676.548 560.34 676.3 558.526L676.3 557.573C676.206 554.911 675.106 553.027 673.2 552.262 671.316 551.517 670.366 549.562 669.9 548L683 548 683 560.989Z" fill="#000000" fill-rule="nonzero" fill-opacity="1"/></g></g></g></g></g></svg>