<svg width="96" height="98" xmlns="http://www.w3.org/2000/svg" xmlns:xlink="http://www.w3.org/1999/xlink" xml:space="preserve" overflow="hidden"><g transform="translate(-588 -402)"><g><g><g><g><path d="M619 460C619 461.105 618.105 462 617 462 615.895 462 615 461.105 615 460 615 458.895 615.895 458 617 458 618.105 458 619 458.895 619 460Z" fill="#000000" fill-rule="nonzero" fill-opacity="1"/><path d="M623 443.5C623 444.328 622.328 445 621.5 445 620.672 445 620 444.328 620 443.5 620 442.672 620.672 442 621.5 442 622.328 442 623 442.672 623 443.5Z" fill="#000000" fill-rule="nonzero" fill-opacity="1"/><path d="M628 452.5C628 453.328 627.328 454 626.5 454 625.672 454 625 453.328 625 452.5 625 451.672 625.672 451 626.5 451 627.328 451 628 451.672 628 452.5Z" fill="#000000" fill-rule="nonzero" fill-opacity="1"/><path d="M650 459.5C650 460.328 649.328 461 648.5 461 647.672 461 647 460.328 647 459.5 647 458.672 647.672 458 648.5 458 649.328 458 650 458.672 650 459.5Z" fill="#000000" fill-rule="nonzero" fill-opacity="1"/><path d="M653 450C653 451.105 652.105 452 651 452 649.895 452 649 451.105 649 450 649 448.895 649.895 448 651 448 652.105 448 653 448.895 653 450Z" fill="#000000" fill-rule="nonzero" fill-opacity="1"/><path d="M636 415C636.552 415 637 414.552 637 414L637 409C637 408.448 636.552 408 636 408 635.448 408 635 408.448 635 409L635 414C635 414.552 635.448 415 636 415Z" fill="#000000" fill-rule="nonzero" fill-opacity="1"/><path d="M631.061 414.975C631.445 415.372 632.078 415.383 632.475 415 632.872 414.616 632.883 413.983 632.5 413.586 632.492 413.577 632.483 413.569 632.475 413.561L628.939 410.025C628.542 409.641 627.909 409.652 627.525 410.05 627.151 410.437 627.151 411.051 627.525 411.439Z" fill="#000000" fill-rule="nonzero" fill-opacity="1"/><path d="M640.232 415.268C640.497 415.268 640.752 415.163 640.939 414.975L644.475 411.439C644.872 411.055 644.883 410.422 644.5 410.025 644.116 409.628 643.483 409.617 643.086 410 643.077 410.008 643.069 410.017 643.061 410.025L639.525 413.561C639.135 413.952 639.135 414.585 639.525 414.975 639.713 415.163 639.967 415.268 640.232 415.268Z" fill="#000000" fill-rule="nonzero" fill-opacity="1"/><path d="M654.719 486.6C654.011 487.305 653.146 487.832 652.194 488.136L649.361 489.155 649.327 489.168C647.004 490.099 646.687 491.262 646.827 492.076 647.099 493.601 649.327 494.011 651.652 494.011 653.414 493.984 655.17 493.815 656.905 493.506 658.505 493.241 666.467 491.773 665.976 488.794 665.841 487.98 665.155 486.989 662.617 486.883L659.58 486.866C658.588 486.893 657.603 486.683 656.708 486.254L656.548 485.454 654.048 470.895C655.016 470.672 655.941 470.289 656.783 469.762 660.372 467.48 662.234 463.261 661.5 459.071L652.464 417.757C652.318 416.948 651.603 416.368 650.782 416.391 650.668 416.391 650.554 416.401 650.442 416.421L636.43 418.911C636.28 418.939 636.134 418.986 635.995 419.049 635.856 418.986 635.71 418.939 635.56 418.911L621.548 416.421C621.436 416.401 621.322 416.391 621.208 416.391 620.387 416.368 619.672 416.948 619.526 417.757L610.491 459.071C609.757 463.258 611.615 467.475 615.2 469.759 616.042 470.286 616.966 470.669 617.934 470.892L615.434 485.458 615.27 486.258C614.368 486.69 613.376 486.898 612.377 486.867L609.33 486.885C606.83 486.99 606.143 487.985 606.008 488.796 605.517 491.774 613.477 493.242 615.066 493.505 616.794 493.823 618.545 493.993 620.302 494.012 620.702 494.012 621.093 494 621.456 493.976 622.298 493.92 624.856 493.75 625.156 492.076 625.301 491.263 624.985 490.1 622.656 489.168L619.764 488.128C618.821 487.824 617.964 487.3 617.264 486.599L619.9 471.258C620.399 471.337 620.904 471.38 621.409 471.384 621.932 471.385 622.454 471.336 622.967 471.237 627.209 470.383 630.495 467.02 631.251 462.759L635.986 428.247C635.991 428.207 636 428.207 636.006 428.247L640.74 462.759C641.495 467.02 644.782 470.383 649.024 471.237 649.537 471.336 650.059 471.386 650.582 471.384 651.087 471.38 651.591 471.337 652.09 471.258L654.58 485.787ZM619.119 490.019 621.936 491.031C622.345 491.18 622.729 491.389 623.075 491.653 623.083 491.659 623.082 491.666 623.075 491.67 622.275 492.014 619.583 492.27 615.409 491.532 611.248 490.846 608.789 489.712 608.129 489.116 608.124 489.114 608.122 489.109 608.123 489.104 608.124 489.102 608.126 489.1 608.129 489.099 608.531 488.955 608.954 488.882 609.381 488.883L612.365 488.866C613.604 488.873 614.832 488.631 615.976 488.153 616.888 488.98 617.957 489.614 619.119 490.018ZM629.275 462.445C628.643 465.875 625.992 468.577 622.575 469.275 622.189 469.349 621.798 469.385 621.405 469.384 620.911 469.381 620.418 469.335 619.932 469.246L618.975 469.076C618.018 468.925 617.1 468.585 616.275 468.076 613.379 466.237 611.87 462.839 612.447 459.457L617.207 437.694C618.436 438.095 619.719 438.307 621.012 438.323 622.647 438.276 624.265 437.971 625.805 437.418 627.944 436.754 629.831 436.195 632.726 437.246ZM633.011 435.213C629.699 434.124 627.425 434.824 625.219 435.507 622.8 436.48 620.114 436.558 617.643 435.727L621.426 418.427 634.983 420.84ZM650.564 418.431 654.346 435.731C651.875 436.562 649.189 436.484 646.771 435.511 644.563 434.828 642.288 434.128 638.979 435.217L637.007 420.84ZM649.411 469.275C645.994 468.577 643.343 465.875 642.711 462.445L639.254 437.245C642.148 436.196 644.033 436.754 646.175 437.418 647.715 437.971 649.333 438.277 650.968 438.323 652.261 438.307 653.544 438.095 654.773 437.694L659.532 459.457C660.11 462.839 658.601 466.237 655.705 468.076 654.88 468.585 653.962 468.924 653.005 469.076L652.048 469.246C651.562 469.335 651.069 469.381 650.575 469.384 650.184 469.385 649.795 469.349 649.411 469.275ZM656.57 491.533C652.433 492.268 649.748 492.016 648.931 491.675 648.926 491.672 648.925 491.666 648.928 491.661 648.929 491.66 648.93 491.659 648.931 491.658 649.268 491.386 649.649 491.174 650.058 491.03L652.849 490.03C654.02 489.625 655.098 488.988 656.016 488.156 657.151 488.632 658.37 488.874 659.601 488.869L662.575 488.885C663.016 488.888 663.455 488.958 663.875 489.092 663.884 489.092 663.886 489.102 663.875 489.109 663.229 489.7 660.766 490.841 656.57 491.533Z" fill="#000000" fill-rule="nonzero" fill-opacity="1"/></g></g></g></g></g></svg>