<svg width="97" height="96" xmlns="http://www.w3.org/2000/svg" xmlns:xlink="http://www.w3.org/1999/xlink" xml:space="preserve" overflow="hidden"><g transform="translate(-389 -328)"><g><g><g><g><path d="M469 414.08C469.26 415.55 464.8 417.52 459.09 418.55 453.38 419.58 448.52 419.3 448.25 417.83 448.13 417.14 448.97 416.36 450.53 415.63L450.62 415.63C451.718 415.142 452.847 414.728 454 414.39 455.3 413.7 456.3 412.81 456.14 411.94L453.26 396.21C448.118 396.29 443.676 392.632 442.77 387.57L438 353.56 433.23 387.56C432.324 392.622 427.882 396.281 422.74 396.2L419.9 411.94C419.74 412.81 420.74 413.7 422.04 414.39 423.182 414.726 424.302 415.137 425.39 415.62L425.48 415.62C427.04 416.35 427.88 417.13 427.76 417.82 427.49 419.29 422.62 419.57 416.92 418.54 411.22 417.51 406.75 415.54 407.01 414.07 407.14 413.38 408.28 412.96 409.92 412.81 411.134 412.696 412.356 412.696 413.57 412.81 415.03 412.63 416.28 412.14 416.44 411.28L419.28 395.55C414.457 393.798 411.589 388.834 412.48 383.78L421.64 342.5C421.82 341.584 422.708 340.987 423.624 341.167 423.629 341.168 423.634 341.169 423.64 341.17L437.64 343.7C437.753 343.718 437.864 343.748 437.97 343.79 438.076 343.748 438.187 343.718 438.3 343.7L452.3 341.17C453.214 340.981 454.108 341.569 454.297 342.484 454.298 342.489 454.299 342.495 454.3 342.5L463.46 383.78C464.351 388.834 461.483 393.798 456.66 395.55L459.5 411.28C459.66 412.14 460.91 412.63 462.37 412.81 463.584 412.696 464.806 412.696 466.02 412.81 467.72 413 468.86 413.39 469 414.08ZM421 385C421 383.895 420.105 383 419 383 417.895 383 417 383.895 417 385 417 386.105 417.895 387 419 387 420.105 387 421 386.105 421 385ZM425 368.5C425 367.672 424.328 367 423.5 367 422.672 367 422 367.672 422 368.5 422 369.328 422.672 370 423.5 370 424.328 370 425 369.328 425 368.5ZM430 377.5C430 376.672 429.328 376 428.5 376 427.672 376 427 376.672 427 377.5 427 378.328 427.672 379 428.5 379 429.328 379 430 378.328 430 377.5ZM435.4 346.9 424.68 345 420.9 362.06 433.27 362.06ZM452 384.5C452 383.672 451.328 383 450.5 383 449.672 383 449 383.672 449 384.5 449 385.328 449.672 386 450.5 386 451.328 386 452 385.328 452 384.5ZM455 375C455 373.895 454.105 373 453 373 451.895 373 451 373.895 451 375 451 376.105 451.895 377 453 377 454.105 377 455 376.105 455 375ZM455.1 362.06 451.32 345 440.6 346.9 442.73 362.06Z" fill="#000000" fill-rule="nonzero" fill-opacity="1"/><path d="M437 339 437 334C437 333.448 437.448 333 438 333 438.552 333 439 333.448 439 334L439 339C439 339.552 438.552 340 438 340 437.448 340 437 339.552 437 339Z" fill="#000000" fill-rule="nonzero" fill-opacity="1"/><path d="M433.06 340C433.247 340.191 433.503 340.299 433.77 340.3 434.322 340.298 434.768 339.848 434.766 339.296 434.765 339.031 434.658 338.777 434.47 338.59L430.94 335C430.521 334.641 429.889 334.69 429.53 335.109 429.209 335.483 429.209 336.036 429.53 336.41Z" fill="#000000" fill-rule="nonzero" fill-opacity="1"/><path d="M442.23 340.27C442.497 340.269 442.753 340.161 442.94 339.97L446.47 336.44C446.868 336.051 446.874 335.413 446.485 335.015 446.096 334.617 445.458 334.611 445.06 335L441.53 338.53C441.138 338.919 441.135 339.552 441.524 339.944 441.711 340.133 441.965 340.239 442.23 340.24Z" fill="#000000" fill-rule="nonzero" fill-opacity="1"/></g></g></g></g></g></svg>