<svg width="97" height="96" xmlns="http://www.w3.org/2000/svg" xmlns:xlink="http://www.w3.org/1999/xlink" xml:space="preserve" overflow="hidden"><g transform="translate(-168 -76)"><g><g><g><g><path d="M218 141C218 142.105 217.105 143 216 143 214.895 143 214 142.105 214 141 214 139.895 214.895 139 216 139 217.105 139 218 139.895 218 141Z" fill="#000000" fill-rule="nonzero" fill-opacity="1"/><path d="M226 141C226 142.105 225.105 143 224 143 222.895 143 222 142.105 222 141 222 139.895 222.895 139 224 139 225.105 139 226 139.895 226 141Z" fill="#000000" fill-rule="nonzero" fill-opacity="1"/><path d="M218 149C218 150.105 217.105 151 216 151 214.895 151 214 150.105 214 149 214 147.895 214.895 147 216 147 217.105 147 218 147.895 218 149Z" fill="#000000" fill-rule="nonzero" fill-opacity="1"/><path d="M226 149C226 150.105 225.105 151 224 151 222.895 151 222 150.105 222 149 222 147.895 222.895 147 224 147 225.105 147 226 147.895 226 149Z" fill="#000000" fill-rule="nonzero" fill-opacity="1"/><path d="M245.3 133.5C241.6 130.4 237.2 128.6 232.6 126.9L227.7 124.9C227.3 124.7 227.1 124.4 227.1 124L227.1 121.6C230.9 118.6 233.1 114 233.1 109.1L233.1 103.1 233.1 100.1C237.5 96.8 238.4 90.5 235.1 86.1 232.8 83 229 81.6 225.2 82.3 222 77.8 215.8 76.8 211.3 80 210.4 80.6 209.6 81.4 209 82.3 203.6 81.3 198.3 84.8 197.3 90.2 196.5 93.9 198 97.7 201 100L201 106 201 109C201 113.8 203.2 118.4 207 121.5L207 124C207 124.4 206.8 124.8 206.4 124.9L201.5 126.9C196.9 128.5 192.5 130.4 188.8 133.5 186.4 135.3 185.1 138 185 141L185 158.6 185.9 159.2C190.8 162.5 204.1 164.1 217.3 164.1 230.6 164.1 243.8 162.4 248.2 159.1L249 158.5 249 141C248.9 138 247.6 135.3 245.3 133.5ZM207 86C208.5 86 209.9 86.6 211 87.6 211.2 84.3 214.1 81.8 217.4 82.1 220.4 82.3 222.7 84.7 222.9 87.6 225.4 85.4 229.1 85.6 231.4 88 233.6 90.5 233.4 94.2 231 96.5 230.4 97 229.7 97.4 229 97.7L229 102 205 102 205 97.7C201.9 96.6 200.3 93.2 201.4 90 202.2 87.6 204.5 86 207 86ZM205 109 205 106 229 106 229 109C229 115.6 223.6 121 217 121 210.4 121 205 115.6 205 109ZM217 125C219.1 125 221.1 124.6 223 123.8L223 123.9C223 125.4 223.7 126.9 224.9 127.9 222.4 128.7 219.7 129 217 129 214.3 129 211.6 128.6 209 127.9 210.2 127 210.9 125.5 210.9 123.9L210.9 123.8C212.9 124.6 214.9 125 217 125ZM189 141C189 139.2 189.9 137.6 191.3 136.5 194.6 133.8 198.6 132.1 202.8 130.6L202.9 130.5C203.4 130.3 203.8 130.2 204.3 130 204.5 130.1 204.8 130.3 205 130.4L205 159.4C198.1 158.8 192.1 157.8 189 156.2L189 141ZM245 156.4C239.5 159.4 223 160.5 209 159.8L209 132C211.6 132.7 214.3 133 217 133 222.1 133 226.7 131.9 229.7 130.1 230.2 130.3 230.6 130.4 231.1 130.6L231.3 130.7C235.5 132.2 239.5 133.9 242.8 136.6 244.2 137.7 245 139.3 245 141L245 156.4Z" fill="#000000" fill-rule="nonzero" fill-opacity="1"/></g></g></g></g></g></svg>