<svg width="96" height="97" xmlns="http://www.w3.org/2000/svg" xmlns:xlink="http://www.w3.org/1999/xlink" xml:space="preserve" overflow="hidden"><g transform="translate(-792 -236)"><g><g><g><g><path d="M813 269.19C815.761 269.19 818 266.951 818 264.19 818 261.429 815.761 259.19 813 259.19 810.239 259.19 808 261.429 808 264.19 808 266.951 810.239 269.19 813 269.19Z" fill="#000000" fill-rule="nonzero" fill-opacity="1"/><path d="M819.52 280.52C819.951 280.831 820.469 280.999 821 281L828 281C829.381 281 830.5 279.881 830.5 278.5 830.5 277.119 829.381 276 828 276L821.82 276 817.06 272.51C816.021 271.082 814.296 270.319 812.54 270.51 809.953 270.832 808.024 273.053 808.07 275.66L808.07 290C808.07 292.761 810.309 295 813.07 295L818 295 824 295 824 307.72C824 309.101 825.119 310.22 826.5 310.22 827.881 310.22 829 309.101 829 307.72L829 292.47C829 291.089 827.881 289.97 826.5 289.97L818 289.97 818 279.39Z" fill="#000000" fill-rule="nonzero" fill-opacity="1"/><path d="M867 269.19C869.761 269.19 872 266.951 872 264.19 872 261.429 869.761 259.19 867 259.19 864.239 259.19 862 261.429 862 264.19 862 266.951 864.239 269.19 867 269.19Z" fill="#000000" fill-rule="nonzero" fill-opacity="1"/><path d="M867.46 270.46C865.704 270.269 863.979 271.032 862.94 272.46L858.18 276 852 276C850.619 276 849.5 277.119 849.5 278.5 849.5 279.881 850.619 281 852 281L859 281C859.531 280.999 860.049 280.831 860.48 280.52L862 279.39 862 290 853.53 290C852.149 290 851.03 291.119 851.03 292.5L851.03 307.72C851.03 309.101 852.149 310.22 853.53 310.22 854.911 310.22 856.03 309.101 856.03 307.72L856.03 295 862.03 295 866.91 295C869.671 295 871.91 292.761 871.91 290L871.91 275.61C871.957 273.01 870.039 270.791 867.46 270.46Z" fill="#000000" fill-rule="nonzero" fill-opacity="1"/><path d="M857 283 823 283C821.895 283 821 283.895 821 285 821 286.105 821.895 287 823 287L838 287 838 307 832 307 832 311 848 311 848 307 842 307 842 287 857 287C858.105 287 859 286.105 859 285 859 283.895 858.105 283 857 283Z" fill="#000000" fill-rule="nonzero" fill-opacity="1"/><path d="M820 297 806 297 806 277C806 275.895 805.105 275 804 275 802.895 275 802 275.895 802 277L802 299C802 300.105 802.895 301 804 301L810 301 810 307 806 307 806 311 818 311 818 307 814 307 814 301 820 301C821.105 301 822 300.105 822 299 822 297.895 821.105 297 820 297Z" fill="#000000" fill-rule="nonzero" fill-opacity="1"/><path d="M876 275.5C874.895 275.5 874 276.395 874 277.5L874 297 860 297C858.895 297 858 297.895 858 299 858 300.105 858.895 301 860 301L866 301 866 307 862 307 862 311 874 311 874 307 870 307 870 301 876 301C877.105 301 878 300.105 878 299L878 277.5C878 276.395 877.105 275.5 876 275.5Z" fill="#000000" fill-rule="nonzero" fill-opacity="1"/></g></g></g></g></g></svg>