<svg width="96" height="96" xmlns="http://www.w3.org/2000/svg" xmlns:xlink="http://www.w3.org/1999/xlink" xml:space="preserve" overflow="hidden"><g transform="translate(-792 -360)"><g><path d="M867.29 417.48C864.039 414.882 860.401 412.809 856.509 411.337 857.919 406.344 861.4 391.1 855.418 379.05 853.765 375.461 850.942 372.541 847.411 370.768 846.975 370.558 846.459 370.605 846.068 370.89L845.142 371.549 844.119 370.118C843.808 369.67 843.335 369.361 842.8 369.257 841.845 369.087 840.878 369.001 839.908 369 831.835 369 825.622 374.674 823.249 382.383 819.434 393.703 822.257 406.818 823.506 411.331 819.607 412.804 815.963 414.879 812.706 417.48 810.448 419.341 809.099 422.082 809 425.006L809 431.836C808.232 431.672 807.445 431.623 806.663 431.69L798.425 404.69C798.198 403.893 797.369 403.431 796.572 403.658 795.775 403.884 795.313 404.714 795.539 405.511 795.545 405.529 795.55 405.547 795.556 405.565L803.732 432.365C800.684 433.384 798.774 435.146 800.276 440.955 801.501 445.692 803.406 446.976 805.756 446.976 806.832 446.935 807.899 446.762 808.932 446.459 810.303 446.156 811.564 445.481 812.578 444.51 816.659 446.115 822.978 447.175 829.998 447.691L829.998 417.89 833.475 424.15 840 419.8 846.521 424.147 850.001 417.884 850.001 447.731C859.073 447.1 866.93 445.557 870.201 443.105L871.001 442.505 871 424.963C870.89 422.053 869.539 419.329 867.29 417.48ZM808.008 442.568C805.032 443.335 805.031 443.338 804.156 439.952 803.281 436.566 803.28 436.565 806.212 435.807L806.326 435.777C806.926 435.621 807.555 435.61 808.16 435.744L808.388 435.794C809.604 436.067 810.575 436.98 810.921 438.178 811.32 440.193 810.02 442.152 808.008 442.568ZM834.525 419.85 830.6 412.794 830.888 412.675C831.062 412.6 831.231 412.516 831.395 412.422L838.109 417.457ZM833.49 410.24C833.821 409.557 833.992 408.809 833.99 408.05L833.99 407.857C837.848 409.408 842.16 409.384 846 407.79L846 408.05C846.002 408.985 846.266 409.9 846.762 410.692L840.055 415.163ZM845.482 419.85 841.958 417.5 849.158 412.7 849.399 412.8ZM851.905 393C851.905 399.627 846.532 405 839.905 405 833.278 405 827.905 399.627 827.905 393L827.905 391.62C831.264 390.525 840.687 387.099 844.505 382.044 847.242 383.737 849.733 385.801 851.905 388.176Z" fill="#000000" fill-rule="nonzero" fill-opacity="1"/><path d="M876.015 382C875.303 381.54 874.74 380.884 874.395 380.11L874.395 379.41C874.395 378.692 873.813 378.11 873.095 378.11 872.377 378.11 871.795 378.692 871.795 379.41L871.795 399.17C870.535 398.95 869.24 399.074 868.045 399.53 865.205 400.53 863.465 402.92 864.155 404.81 864.845 406.7 867.685 407.4 870.525 406.37 872.264 405.835 873.679 404.562 874.395 402.89L874.395 388.83C874.636 389.034 874.894 389.218 875.165 389.38 879.525 391.96 877.115 396.12 879.255 396.14 881.945 396.16 882.015 386 876.015 382Z" fill="#000000" fill-rule="nonzero" fill-opacity="1"/></g></g></svg>