<svg width="97" height="96" xmlns="http://www.w3.org/2000/svg" xmlns:xlink="http://www.w3.org/1999/xlink" xml:space="preserve" overflow="hidden"><g transform="translate(-708 -80)"><g><g><g><g><path d="M796.8 99 732.8 99C730.6 99 728.8 100.8 728.8 103L728.8 117.5C729.9 117.2 731.2 117 732.4 117 733.2 117 734 117.1 734.8 117.2L734.8 105 794.8 105 794.8 143 760.9 143 755.2 149 796.8 149C799 149 800.8 147.2 800.8 145L800.8 103C800.8 100.8 799 99 796.8 99" fill="#000000" fill-rule="nonzero" fill-opacity="1"/><path d="M732.5 138C737.2 138 741 134.2 741 129.5 741 124.8 737.2 121 732.5 121 727.8 121 724 124.8 724 129.5 723.9 134.2 727.8 138 732.5 138" fill="#000000" fill-rule="nonzero" fill-opacity="1"/><path d="M765.2 128.1C763.9 126.1 761.3 125.6 759.3 126.8 758.9 127 758.7 127.4 758.5 127.6L743.9 142.8C742.5 142.1 741 141.5 739.5 141 737.2 140.6 734.8 140.1 732.5 140.1 730.2 140.1 727.8 140.5 725.5 141.2 722.1 142.1 719.1 143.8 716.6 145.9 716 146.5 715.5 147.4 715.3 148.2L713.2 157 743.1 157 743.1 156.9 751.6 147 764.7 133.2C765.9 132 766.3 129.7 765.2 128.1" fill="#000000" fill-rule="nonzero" fill-opacity="1"/></g></g></g></g></g></svg>