<svg width="97" height="98" xmlns="http://www.w3.org/2000/svg" xmlns:xlink="http://www.w3.org/1999/xlink" xml:space="preserve" overflow="hidden"><g transform="translate(-484 -498)"><g><g><g><g><path d="M512.293 550.444 512.308 550.444C512.608 550.444 519.762 550.314 523.284 548.453 523.314 548.436 523.345 548.418 523.374 548.399 524.834 547.328 526.208 546.145 527.483 544.86 527.713 544.641 527.935 544.43 528.152 544.226 529.476 544.66 530.852 544.914 532.243 544.982 532.5 544.994 532.757 545 533.012 545 534.396 544.997 535.774 544.815 537.112 544.458 537.295 544.629 537.48 544.803 537.679 544.991 538.894 546.186 540.181 547.306 541.532 548.344 544.804 550.713 552.987 548.929 553.91 548.718 554.298 548.625 554.594 548.311 554.663 547.918 554.73 547.52 554.555 547.12 554.216 546.899 554.195 546.886 552.168 545.518 550.865 540.368 550.438 538.697 551.178 535.345 551.965 531.796 552.824 528.482 553.348 525.09 553.529 521.671 553.529 516.596 552.029 513.488 548.814 511.892 547.158 511.249 545.342 511.139 543.621 511.579 542.721 510.37 540.327 507.824 535.311 506.261 529.893 504.771 524.104 505.517 519.241 508.333 515.055 511.033 513.047 514.053 512.954 523.878 512.916 528.02 513.16 531.878 513.376 535.285 513.667 538.103 513.716 540.941 513.521 543.767 513.288 545.607 512.589 547.357 511.489 548.851 511.161 549.296 511.257 549.922 511.701 550.249 511.872 550.375 512.077 550.443 512.289 550.444ZM532.335 542.984C525.185 542.595 519.461 536.908 519.027 529.76 519.003 529.276 519.003 528.792 519.027 528.308 519.074 527.291 519.893 526.481 520.91 526.445 521.63 526.433 522.348 526.366 523.058 526.245 526.309 525.815 529.482 524.92 532.478 523.586 535.772 521.929 538.83 519.839 541.571 517.373 541.82 518.931 542.373 520.425 543.201 521.768 543.22 521.8 543.242 521.831 543.265 521.86 543.661 522.332 544.119 522.747 544.626 523.096L544.789 523.219C544.977 523.365 545.151 523.529 545.308 523.709 546.24 524.78 546.807 526.12 546.927 527.535 546.977 528.022 547.001 528.511 547 529 547 536.732 540.732 543 533 543 532.778 543 532.556 542.995 532.335 542.984ZM515.373 535.158C515.159 531.787 514.916 527.965 514.954 523.896 515.039 514.933 516.68 512.369 520.281 510.041 524.661 507.513 529.87 506.842 534.747 508.177 540.476 509.962 542.276 513.155 542.291 513.177 542.515 513.6 543.007 513.806 543.465 513.667 544.233 513.436 546.532 512.986 547.921 513.676 549.599 514.508 551.521 516.169 551.521 521.658 551.336 524.933 550.828 528.183 550.004 531.358 549.131 535.31 548.377 538.724 548.922 540.858 549.411 543.105 550.343 545.233 551.663 547.116 548.813 547.585 544.422 547.972 542.7 546.726 541.491 545.796 540.338 544.794 539.249 543.726 545.161 541.221 549.001 535.421 549 529 549 528.441 548.971 527.882 548.914 527.326 548.75 525.491 548.008 523.755 546.793 522.37 546.551 522.096 546.283 521.845 545.993 521.621L545.822 521.493C545.475 521.255 545.156 520.979 544.872 520.668 544.171 519.514 543.71 518.229 543.519 516.892 543.366 515.854 542.4 515.137 541.362 515.29 540.975 515.347 540.615 515.523 540.331 515.792 537.71 518.168 534.78 520.18 531.621 521.773 528.799 523.024 525.812 523.863 522.752 524.264 522.127 524.372 521.494 524.432 520.859 524.443 518.796 524.508 517.129 526.146 517.027 528.207 517.001 528.759 517.002 529.315 517.027 529.862 517.382 535.687 520.858 540.865 526.115 543.4L526.104 543.411C524.92 544.603 523.65 545.706 522.304 546.711 520.204 547.798 516.418 548.211 514.148 548.36 514.852 547.012 515.309 545.55 515.5 544.042 515.725 541.083 515.683 538.109 515.373 535.158Z" fill="#000000" fill-rule="nonzero" fill-opacity="1"/><path d="M561.533 558.525C556.943 554.991 551.685 552.424 546.075 550.979 544.783 550.592 543.482 550.258 542.209 549.986L541.702 549.877 541.321 550.23C537.246 554 534.484 554 533 554 531.516 554 528.731 554 524.676 550.28L524.297 549.932 523.797 550.038C522.572 550.296 521.278 550.611 519.94 550.976 514.398 552.6 509.171 555.15 504.479 558.518 502.328 560.203 501.05 562.768 501 565.5L501 581 503 581 503 565.5C503.044 563.391 504.03 561.413 505.688 560.108 510.178 556.894 515.177 554.46 520.476 552.908 521.586 552.608 522.676 552.336 523.711 552.108 527.6 555.527 530.584 556 533 556 535.416 556 538.384 555.521 542.29 552.051 543.351 552.291 544.43 552.574 545.513 552.899 550.868 554.272 555.889 556.715 560.275 560.08 561.952 561.385 562.953 563.375 563 565.5L563 581 565 581 565 565.5C564.952 562.772 563.678 560.211 561.533 558.525Z" fill="#000000" fill-rule="nonzero" fill-opacity="1"/></g></g></g></g></g></svg>