<svg width="98" height="98" xmlns="http://www.w3.org/2000/svg" xmlns:xlink="http://www.w3.org/1999/xlink" xml:space="preserve" overflow="hidden"><g transform="translate(-454 -214)"><g><g><g><g><path d="M531.8 278.6C527.4 275 521.8 272.6 516.2 271 512.2 269.8 507.8 269 503 269 498.6 269 494.2 269.8 489.8 271 484.2 272.6 478.6 275.4 474.2 278.6 472.2 280.2 471 282.6 471 285L471 301 535 301 535 285C535 282.6 533.8 280.2 531.8 278.6Z" fill="#000000" fill-rule="nonzero" fill-opacity="1"/><path d="M487.4 235.4C488 235.4 488.5 235.2 488.8 234.8L488.8 234.8C492.5 231.2 497.5 229 503 229 514 229 523 238 523 249L523 253.6 511.5 257.4C511 257.2 510.5 257 510 257 508.3 257 507 258.3 507 260 507 261.7 508.3 263 510 263 511.2 263 512.3 262.3 512.8 261.2L528.7 255.9C529.5 255.6 530.1 254.9 530.1 254L530.1 245C530.1 243.9 529.2 243 528.1 243L526.3 243C523.6 232.7 514.2 225 503 225 496.5 225 490.6 227.6 486.2 231.8 485.7 232.2 485.4 232.7 485.4 233.4 485.4 234.5 486.3 235.4 487.4 235.4Z" fill="#000000" fill-rule="nonzero" fill-opacity="1"/><path d="M518.9 250.7C519 250.1 519 249.6 519 249 519 240.2 511.8 233 503 233 494.2 233 487 240.2 487 249 487 257.8 494.2 265 503 265 503.3 265 503.7 265 504 264.9L504 260C504 259.1 504.2 258.2 504.6 257.3 505.3 255.9 506.5 254.8 508.1 254.3L518.9 250.7Z" fill="#000000" fill-rule="nonzero" fill-opacity="1"/></g></g></g></g></g></svg>