<svg width="98" height="98" xmlns="http://www.w3.org/2000/svg" xmlns:xlink="http://www.w3.org/1999/xlink" xml:space="preserve" overflow="hidden"><g transform="translate(-722 -486)"><g><g><g><g><path d="M802 551.971C801.891 549.062 800.542 546.338 798.294 544.488 795.152 541.819 790.84 539.523 784.81 537.288L781.62 535.982C781.245 535.828 781 535.463 781 535.057L781 533 786.78 533C786.78 533 793.62 523.78 787.363 513.873 788.263 513.057 788.779 511.901 788.784 510.686L788.784 507.35 795.394 501.73C795.815 501.373 795.867 500.742 795.51 500.32 795.377 500.164 795.199 500.052 795 500L774.074 494.4C772.085 493.865 769.989 493.865 768 494.4L747 500C746.467 500.146 746.154 500.697 746.301 501.229 746.353 501.42 746.461 501.591 746.61 501.72L753.22 507.34 753.22 510.77C753.224 511.905 753.674 512.993 754.473 513.8 748.13 523.735 755 533 755 533L760.992 533 760.992 535.053C760.992 535.459 760.747 535.824 760.371 535.978L757.26 537.265C751.196 539.506 746.86 541.809 743.709 544.487 741.451 546.347 740.1 549.088 740 552.012L740 569.57 740.89 570.164C745.79 573.429 758.583 575.056 771.283 575.056 784.09 575.056 796.8 573.4 801.2 570.1L802 569.5ZM759 520.012 759 516.339C767.525 519.684 775.86 519.65 783 516.494L783 520.012C783 526.639 777.627 532.012 771 532.012 764.373 532.012 759 526.639 759 520.012ZM765.824 500.48C766.705 500.476 767.581 500.621 768.414 500.91 769.338 499.469 771.255 499.049 772.697 499.973 773.073 500.214 773.393 500.534 773.634 500.91 774.467 500.621 775.343 500.476 776.224 500.48L784 500.48 783.31 500.88C782.665 501.259 781.937 501.475 781.19 501.51 778.688 501.573 776.217 502.077 773.89 503 773.318 504.596 771.56 505.426 769.964 504.854 769.1 504.544 768.42 503.864 768.11 503 765.781 502.094 763.309 501.606 760.81 501.56 760.063 501.525 759.335 501.309 758.69 500.93L758 500.53ZM756 508 786 508 786 511 756 511ZM773.7 557.181 773.307 547 768.675 547 768.289 557.138 761.23 539.955 761.893 539.683C763.775 538.918 765.004 537.088 765 535.057L765 534.832C768.847 536.403 773.158 536.403 777.005 534.832L777.005 535.054C777 537.083 778.226 538.913 780.105 539.68L780.773 539.954ZM795 558 785 558 785 556 795 556Z" fill="#000000" fill-rule="nonzero" fill-opacity="1"/><path d="M768.555 544.98 773.451 544.98 775.003 538.98 767.003 538.98 768.555 544.98Z" fill="#000000" fill-rule="nonzero" fill-opacity="1"/></g></g></g></g></g></svg>