<svg width="98" height="96" xmlns="http://www.w3.org/2000/svg" xmlns:xlink="http://www.w3.org/1999/xlink" xml:space="preserve" overflow="hidden"><g transform="translate(-570 -76)"><g><g><g><g><path d="M619 95.5C623.4 95.5 627 91.9 627 87.5 627 83.1 623.4 79.5 619 79.5 614.6 79.5 611 83.1 611 87.5 611 91.9 614.6 95.5 619 95.5" fill="#000000" fill-rule="nonzero" fill-opacity="1"/><path d="M639 125.5 643 113.5 595 113.5 599 125.5 605 125.5 609 164.5 603 164.5 603 168.5 635 168.5 635 164.5 629 164.5 633 125.5Z" fill="#000000" fill-rule="nonzero" fill-opacity="1"/><path d="M635.2 104.9C635 104.1 634.6 103.3 634 102.7 631.6 100.7 628.8 99.3 625.6 98.3 623.4 97.9 621.2 97.5 619 97.5 616.8 97.5 614.6 97.9 612.4 98.5 609.2 99.3 606.4 100.9 604 102.9 603.4 103.5 603 104.3 602.8 105.1L601.8 109.5 636.3 109.5 635.2 104.9Z" fill="#000000" fill-rule="nonzero" fill-opacity="1"/></g></g></g></g></g></svg>