<svg width="97" height="97" xmlns="http://www.w3.org/2000/svg" xmlns:xlink="http://www.w3.org/1999/xlink" xml:space="preserve" overflow="hidden"><g transform="translate(-168 -265)"><g><g><g><g><path d="M193.006 332.5 184.946 332.5C183.841 332.5 182.946 331.605 182.946 330.5L182.946 317.73C185.944 316.865 188.008 314.12 188.006 311L188.006 307 186.006 307 186.006 302C186.006 301.172 185.334 300.5 184.506 300.5 183.678 300.5 183.006 301.172 183.006 302L183.006 307 178.946 307 178.946 302C178.946 301.172 178.274 300.5 177.446 300.5 176.618 300.5 175.946 301.172 175.946 302L175.946 307 174.006 307 174.006 311C173.993 314.084 175.999 316.813 178.946 317.72L178.946 331.56C178.979 334.321 181.244 336.533 184.005 336.5 184.005 336.5 184.006 336.5 184.006 336.5L192.006 336.5C193.111 336.5 194.006 337.395 194.006 338.5L194.006 356.63 198.006 356.63 198.006 337.5C198.006 334.739 195.767 332.5 193.006 332.5Z" fill="#000000" fill-rule="nonzero" fill-opacity="1"/><path d="M236.733 318.755C235.016 317.933 233.094 317.128 230.967 316.34 231.794 315.42 232.155 314.172 231.948 312.953 234.395 312.737 236.203 310.579 235.987 308.132 235.936 307.563 235.777 307.009 235.517 306.5 237.728 305.406 238.633 302.727 237.539 300.517 237.143 299.716 236.516 299.052 235.739 298.612 237.457 296.846 237.419 294.022 235.653 292.304 235.532 292.186 235.404 292.075 235.27 291.971 236.361 291.819 237.123 290.812 236.971 289.72 236.835 288.738 235.998 288.005 235.006 288L233.006 288C232.658 282.478 229.481 277.527 224.606 274.91L223.006 281.24C222.893 281.697 222.477 282.014 222.006 282L221.766 282C221.225 281.887 220.879 281.357 220.992 280.816 220.992 280.816 220.992 280.816 220.992 280.816 220.992 280.797 221.001 280.779 221.006 280.76L222.906 273.27C222.572 271.939 221.378 271.004 220.006 271L214.006 271C212.634 271.004 211.44 271.939 211.106 273.27L213.006 280.76C213.151 281.292 212.838 281.841 212.306 281.987L212.246 282 212.006 282C211.535 282.014 211.119 281.697 211.006 281.24L209.456 274.91C204.581 277.527 201.404 282.478 201.056 288L199.006 288C197.902 288.03 197.031 288.949 197.061 290.053 197.087 291.013 197.79 291.818 198.737 291.973 196.788 293.48 196.429 296.281 197.935 298.231 198.039 298.365 198.15 298.493 198.268 298.614 196.123 299.831 195.371 302.557 196.588 304.702 197.029 305.478 197.691 306.104 198.49 306.5 197.374 308.688 198.242 311.366 200.43 312.482 200.938 312.742 201.491 312.901 202.059 312.951 201.852 314.17 202.213 315.416 203.038 316.336L200.155 317.516 197.749 318.536C194.861 319.817 192.156 321.478 189.708 323.475 187.593 325.23 186.272 327.761 186.042 330.5L193.006 330.5C194.799 330.5 196.522 331.192 197.818 332.43L199.431 322.137 207.892 318.672C207.967 318.641 208.035 318.598 208.108 318.564L215.005 335 215.005 342 200.005 342 200.005 346 215.005 346 215.005 354.038C215.767 354.05 216.53 354.056 217.294 354.056 217.865 354.056 218.435 354.049 219.005 354.042L219.005 346 238.005 346 238.005 352.355C242.105 351.555 245.376 350.47 247.205 349.1L248.005 348.5 248 330.959C247.89 328.05 246.542 325.327 244.294 323.477 241.985 321.587 239.444 320.001 236.733 318.755ZM216.146 277.31 218.556 277.31 217.486 281.1 219.176 281.1 215.836 287 217.006 282.31 215.336 282.31ZM229 292 229 299C229 305.627 223.627 311 217 311 210.373 311 205 305.627 205 299L205 292ZM217 319C214.354 319.025 211.719 318.654 209.182 317.9 210.333 316.952 210.997 315.538 210.994 314.047L210.994 313.82C214.841 315.392 219.152 315.392 222.999 313.82L222.999 314.042C222.995 315.538 223.664 316.957 224.821 317.906 222.282 318.655 219.647 319.024 217 319ZM219.005 342 219.005 335 225.9 318.571C225.966 318.602 226.026 318.641 226.094 318.671L234.655 322.226 237.7 342Z" fill="#000000" fill-rule="nonzero" fill-opacity="1"/><path d="M186.011 348.572 186.901 349.165C188.488 350.13 190.208 350.857 192.006 351.322L192.006 338.5 186.006 338.5Z" fill="#000000" fill-rule="nonzero" fill-opacity="1"/></g></g></g></g></g></svg>