<svg width="98" height="96" xmlns="http://www.w3.org/2000/svg" xmlns:xlink="http://www.w3.org/1999/xlink" xml:space="preserve" overflow="hidden"><g transform="translate(-354 -76)"><g><g><g><g><path d="M404.506 139.5C404.506 140.328 403.834 141 403.006 141 402.178 141 401.506 140.328 401.506 139.5 401.506 138.672 402.178 138 403.006 138 403.834 138 404.506 138.672 404.506 139.5Z" fill="#000000" fill-rule="nonzero" fill-opacity="1"/><path d="M404.506 145.5C404.506 146.328 403.834 147 403.006 147 402.178 147 401.506 146.328 401.506 145.5 401.506 144.672 402.178 144 403.006 144 403.834 144 404.506 144.672 404.506 145.5Z" fill="#000000" fill-rule="nonzero" fill-opacity="1"/><path d="M404.506 151.5C404.506 152.328 403.834 153 403.006 153 402.178 153 401.506 152.328 401.506 151.5 401.506 150.672 402.178 150 403.006 150 403.834 150 404.506 150.672 404.506 151.5Z" fill="#000000" fill-rule="nonzero" fill-opacity="1"/><path d="M435 140.962C434.946 138.027 433.575 135.271 431.266 133.457 427.526 130.396 423.131 128.508 418.518 126.857L413.627 124.85C413.252 124.696 413.008 124.33 413.008 123.925L413.008 121.477C416.527 118.656 418.689 114.479 418.96 109.977L418.971 109.965C418.971 109.965 418.971 109.886 418.971 109.747 418.983 109.499 419.009 109.255 419.009 109.004L419.009 100.412C419.009 99.705 419.009 99.191 419.009 99.005 419.187 93.822 416.228 89.0414 411.509 86.89 411.033 86.6654 410.472 86.7151 410.043 87.02L409.033 87.72 407.924 86.2C407.58 85.7187 407.063 85.3893 406.481 85.281 405.44 85.0974 404.385 85.0034 403.328 85 394.264 85 387.165 91.735 387.018 100L387.01 100 387.01 100.166C387.01 100.197 387.01 100.227 387.01 100.258L387.01 100.268 387.01 109C387.009 113.85 389.213 118.438 393 121.469L393 123.925C393 124.331 392.755 124.696 392.38 124.85L387.46 126.87C382.98 128.291 378.769 130.45 375 133.257L375.18 136.395C377.118 137.837 378.254 140.115 378.242 142.53L378.242 144.85 390.885 144.85 391.039 146.683 391.709 154.683 391.716 154.769 391.716 154.854C391.711 156.011 391.238 157.116 390.406 157.919 389.482 158.844 388.361 159.547 387.126 159.975L387.126 163.115 388.564 163.305C392.658 163.713 396.496 163.881 398.951 163.946L400.967 164 401.567 164 392.955 128.938 393.901 128.55C394.737 128.203 395.463 127.634 396.001 126.906L396.001 135.59C395.974 135.809 396.129 136.009 396.349 136.036 396.425 136.046 396.502 136.033 396.571 136L403.001 132.17 409.436 136C409.632 136.102 409.874 136.025 409.975 135.829 410.021 135.74 410.032 135.637 410.006 135.54L410.006 126.909C410.544 127.637 411.27 128.204 412.106 128.55L413.056 128.94 404.446 164 405.435 164 407.049 163.964C413.454 163.823 428.921 163.064 434.204 159.105L435.004 158.505ZM409.436 126.33 403.006 130.11 396.576 126.38C396.516 126.343 396.446 126.325 396.376 126.33 396.784 125.594 396.999 124.766 397 123.925L397 123.825C400.848 125.397 405.158 125.397 409.006 123.825L409.006 123.925C409.008 124.749 409.214 125.56 409.606 126.285 409.546 126.284 409.487 126.3 409.436 126.33ZM403.01 121.005C396.632 120.995 391.376 115.999 391.041 109.63L392.212 108.069C392.731 107.377 393.012 106.535 393.012 105.669L393.012 103.607C406.061 103.607 413.012 98.007 413.012 98.007L413.012 105.674C413.012 106.539 413.293 107.382 413.812 108.074L414.978 109.629C414.646 115.999 409.389 120.997 403.01 121.005Z" fill="#000000" fill-rule="nonzero" fill-opacity="1"/><path d="M408.006 166 388.566 166C388.576 165.951 388.576 165.9 388.566 165.85 388.566 165.5 388.196 165.23 387.386 165.02 387.055 164.955 386.722 164.907 386.386 164.876L386.016 164.84C385.446 164.65 385.126 164.42 385.126 164.2L385.126 158.4C386.597 158.217 387.964 157.544 389.006 156.49 389.458 156.064 389.715 155.471 389.716 154.85L389.046 146.85 379.436 146.85 378.866 154.85C378.85 155.461 379.093 156.049 379.536 156.47 380.609 157.552 382.021 158.233 383.536 158.4L383.536 164.22C383.536 164.45 383.186 164.69 382.676 164.86 382.182 164.891 381.693 164.971 381.216 165.1 380.496 165.31 380.106 165.57 380.036 165.9 380.028 165.955 380.046 166.011 380.086 166.05L375.526 166.05C375.986 165.79 376.246 165.49 376.246 165.17L376.246 142.53C376.254 140.435 375.098 138.509 373.246 137.53L372.696 127.94 373.446 127.94 373.446 127.47C373.45 126.659 372.928 125.939 372.156 125.69 372.052 125.621 371.931 125.583 371.806 125.58L368.506 125.58C368.381 125.581 368.259 125.619 368.156 125.69 367.382 125.938 366.856 126.657 366.856 127.47L366.856 127.94 367.606 127.94 367.006 137.53C365.153 138.508 363.997 140.435 364.006 142.53L364.006 165.12C364.006 165.44 364.266 165.74 364.726 166L359.006 166C357.901 166 357.006 166.895 357.006 168 357.006 169.105 357.901 170 359.006 170L408.006 170C409.111 170 410.006 169.105 410.006 168 410.006 166.895 409.111 166 408.006 166ZM380.7 151.22 380.87 148.22 387.87 148.22 388.08 151.22Z" fill="#000000" fill-rule="nonzero" fill-opacity="1"/></g></g></g></g></g></svg>